<?xml version="1.0" encoding="UTF-8"?>
<svg id="Layer_1" data-name="Layer 1" xmlns="http://www.w3.org/2000/svg" viewBox="0 0 466.43 539.56">
  <defs>
    <style>
      .cls-1, .cls-2, .cls-3, .cls-4, .cls-5, .cls-6 {
        stroke-width: 0px;
      }

      .cls-2 {
        fill: #f99001;
      }

      .cls-3 {
        fill: #494036;
      }

      .cls-4 {
        fill: #fddfbb;
      }

      .cls-5 {
        fill: #e76776;
      }

      .cls-6 {
        fill: #fefefe;
      }
    </style>
  </defs>
  <path class="cls-1" d="M342.95,0c0,4.57,0,9.14.01,13.7,0,0-.02.02-.02.02-67.05,0-134.11,0-201.16,0l-.02-.02c0-4.57,0-9.14.01-13.7h201.18Z"/>
  <path class="cls-4" d="M32.01,247.39c.02-.18.04-.36.06-.54,1.6.01,3.19.04,4.79.04,13.61.02,27.23.04,40.84.06,0,0-.02-.03-.02-.03.03,3.88.16,7.77.03,11.64-.06,1.75.46,2.1,2.13,2.09,13.86-.07,27.71-.07,41.57,0,1.7,0,2.13-.39,2.12-2.1-.08-8.45,0-16.9.03-25.35l-.05.05c4.03-.03,8.07-.11,12.1-.04,1.32.02,1.65-.39,1.62-1.66-.08-3.5.03-7-.06-10.5-.04-1.33.4-1.63,1.66-1.62,4.95.07,9.9-.04,14.84.07,1.54.03,1.89-.44,1.85-1.9-.1-3.42.03-6.85-.07-10.28-.04-1.34.42-1.64,1.67-1.61,3.42.08,6.85-.06,10.28.07,1.56.06,1.86-.48,1.84-1.91-.08-4.87.04-9.75-.07-14.62-.04-1.56.48-1.86,1.91-1.84,4.87.08,9.75-.04,14.62.07,1.56.04,1.86-.48,1.83-1.91-.08-5.48-.04-10.96-.03-16.44.02-15.22.05-30.45.07-45.67l-.05.05c10.04-.03,20.09-.08,30.13-.04,1.47,0,1.92-.34,1.89-1.86-.09-3.95.01-7.91.04-11.87l-.05.05c15.22,0,30.45,0,45.67,0l-.05-.05c.03,4.03.1,8.06.04,12.08-.02,1.29.35,1.66,1.64,1.64,4.03-.06,8.06.02,12.08.04,0,0-.05-.05-.05-.05.03,10.05.08,20.09.04,30.14,0,1.47.35,1.91,1.86,1.88,4.95-.1,9.89,0,14.84-.07,1.28-.02,1.67.32,1.65,1.63-.08,5.02.01,10.05-.06,15.07-.02,1.27.31,1.67,1.62,1.65,4.03-.06,8.06.02,12.1.04l-.05-.05c.03,3.96.13,7.92.04,11.87-.04,1.53.44,1.87,1.9,1.85,7.84-.07,15.69-.04,23.53-.03,12.87.02,25.73.05,38.6.07l-.03-.02c.02,2.36-.1,4.73.1,7.08.16,1.84-.58,2.06-2.17,2.05-9.07-.07-18.13.04-27.2-.09-2.12-.03-3.14.36-2.69,2.65.31,1.55-.27,2.3-1.92,1.98-2.17-.42-3.09.4-2.65,2.62.32,1.6-.34,2.11-1.95,1.98-1.89-.15-3.81.04-5.71-.06-1.24-.07-1.53.38-1.5,1.54.07,3.58.08,7.16,0,10.74-.03,1.26.41,1.51,1.56,1.49,3.27-.07,6.56-.19,9.82.03,2.14.15,2.69-.63,2.36-2.52-.28-1.61.19-2.28,2.02-2.16,2.96.18,5.95-.1,8.91.1,2.23.15,3.27-.4,2.8-2.77-.29-1.45.28-1.95,1.81-1.89,3.12.13,6.25.09,9.37.02,2.33-.06,5.45,1.02,6.76-.45,1.15-1.29.45-4.35.3-6.62-.12-1.75.45-2.11,2.13-2.1,13.79.07,27.58.09,41.37-.01,1.94-.01,2.32.51,2.32,2.37-.07,19.81-.01,39.62-.1,59.43,0,1.96.52,2.38,2.38,2.31,3.8-.15,7.62-.03,11.43-.03l-.06-.06c0,4.09.06,8.18,0,12.27-.02,1.19.32,1.53,1.51,1.51,4.09-.06,8.18-.01,12.27,0l-.06-.06v64.08l.06-.06c-4.09,0-8.18.06-12.27,0-1.19-.02-1.53.32-1.51,1.51.06,4.09.01,8.18,0,12.27l.06-.06c-10.02,0-20.04.05-30.06-.02-1.54,0-2.08.29-2.02,1.95.13,3.94.03,7.89.02,11.84l.06-.06c-3.66,0-7.32.16-10.97-.03-2.22-.12-3.27.4-2.8,2.77.29,1.45-.28,1.9-1.81,1.89-9.52-.07-19.04-.06-28.56-.01-1.27,0-1.68-.31-1.66-1.62.08-4.87-.05-9.75.08-14.62.04-1.7-.39-2.13-2.11-2.12-9.37.1-18.74.01-28.11.08-1.49.01-1.92-.38-1.87-1.87.11-3.42,0-6.85.05-10.28.01-1.05-.06-1.67-1.41-1.63-3.65.1-7.31.08-10.97,0-1.14-.02-1.4.37-1.38,1.43.06,3.35-.12,6.71.07,10.05.11,1.98-.55,2.31-2.38,2.3-22.85-.07-45.7-.02-68.55-.09-1.94,0-2.38.51-2.32,2.37.14,4.72.01,9.44.07,14.17.02,1.27-.12,1.85-1.67,1.84-15.69-.07-31.38-.06-47.07-.01-1.34,0-1.62-.42-1.61-1.67.07-4.95-.01-9.9.05-14.85.02-1.28-.14-1.84-1.68-1.84-14.7.08-29.4.06-44.1.07,0-3.89-.07-7.77.07-11.65.06-1.66-.32-2.16-2.08-2.14-9.37.1-18.74.02-28.11.08-1.47.01-1.94-.34-1.89-1.86.12-3.5,0-7.01.06-10.51.02-1.1-.32-1.42-1.41-1.4-3.66.06-7.31.07-10.97,0-1.13-.02-1.4.36-1.38,1.43.06,3.5-.07,7.01.06,10.51.06,1.57-.49,1.84-1.91,1.83-16.15-.05-32.3-.04-48.46-.05l.06.06c0-3.95-.11-7.9.02-11.84.05-1.65-.47-2.01-2.02-1.95-3.41.12-6.83-.01-10.25.06-1.19.03-1.54-.32-1.52-1.52.08-3.41-.06-6.83.06-10.25.06-1.55-.3-2.08-1.95-2.02-3.94.13-7.89.03-11.84.02l.06.06v-54.94l-.06.06c3.96,0,7.92-.08,11.88.01,1.43.03,1.97-.27,1.91-1.84-.13-3.8-.06-7.61-.06-11.42ZM324.71,292.61s.07.06.07.06c-.04-3.81-.19-7.61-.07-11.42.05-1.82-.3-2.42-2.29-2.4-13.72.1-27.43.09-41.15,0-1.84-.01-2.4.34-2.38,2.31.1,12.34.03,24.69.07,37.03,0,2.1-.93,4.9.42,6.1,1.17,1.03,3.93.48,5.95.27,2.32-.24,3.2.52,2.76,2.81-.3,1.52.39,1.9,1.86,1.85,3.35-.11,6.71-.13,10.06,0,1.57.06,1.93-.48,1.83-1.92-.12-1.74.07-3.51-.06-5.25-.11-1.52.23-2.1,1.93-2.06,4.87.13,9.75.09,14.63.01,1.34-.02,1.91.22,1.8,1.72-.15,2.05,0,4.11-.06,6.17-.03.97.23,1.33,1.26,1.31,3.73-.06,7.47-.05,11.2,0,1,.01,1.33-.28,1.29-1.29-.07-1.75.15-3.53-.06-5.25-.28-2.25.52-3.03,2.7-2.64,1.34.24,1.98-.1,1.96-1.75-.1-8-.09-16,0-24,.02-1.5-.49-1.73-1.81-1.71-3.96.08-7.92.02-11.89.02ZM45.75,281.17c0,4.72.05,9.44-.03,14.16-.03,1.43.27,1.95,1.83,1.91,4.87-.11,9.74.01,14.62-.07,1.43-.02,1.97.27,1.91,1.84-.13,3.42.01,6.85-.07,10.28-.03,1.25.27,1.7,1.61,1.67,3.5-.09,7-.08,10.5,0,1.26.03,1.67-.29,1.66-1.61-.06-8.07-.08-16.14.01-24.21.02-1.56-.59-1.68-1.85-1.66-4.87.06-9.75-.03-14.62.06-1.44.03-1.94-.29-1.91-1.84.11-4.95,0-9.9.07-14.84.02-1.25-.27-1.71-1.61-1.67-3.42.1-6.85.1-10.28,0-1.45-.04-1.93.31-1.9,1.85.11,4.72.04,9.44.04,14.16ZM253.99,196.61c-6.32,0-12.63.05-18.95-.04-1.51-.02-1.91.41-1.86,1.89.11,3.34.12,6.7,0,10.04-.05,1.52.42,1.87,1.88,1.86,9.13-.07,18.27.05,27.39-.09,2.26-.04,3.22.47,2.77,2.79-.29,1.48.32,1.97,1.83,1.87,1.97-.13,3.96-.01,5.93-.04.85-.01,1.35.03,1.42,1.16.21,3.43.28,3.42,3.64,3.42.99,0,1.98.01,2.97,0,2.27-.03,5.33.8,6.61-.34,1.46-1.31.39-4.42.45-6.75.05-2.12.76-4.96-.31-6.17-1.24-1.4-4.15-.51-6.31-.39-2.12.12-2.86-.57-2.51-2.6.25-1.45-.11-2.39-1.86-2.03-2.38.5-3.12-.6-2.71-2.79.29-1.58-.49-1.83-1.89-1.82-6.16.07-12.33.03-18.49.03ZM370.38,240.12c0-1.83-.08-3.66.03-5.48.08-1.26-.41-1.51-1.56-1.48-3.58.07-7.15.08-10.73,0-1.26-.03-1.51.41-1.48,1.56.07,3.58.08,7.15,0,10.73-.03,1.26.41,1.51,1.56,1.48,3.58-.07,7.15-.08,10.73,0,1.26.03,1.54-.41,1.48-1.56-.09-1.75-.02-3.5-.02-5.25ZM260.65,240.14c0-1.83-.04-3.65.02-5.48.03-.97-.06-1.53-1.3-1.5-3.73.08-7.46.06-11.19,0-1.03-.02-1.28.34-1.27,1.31.05,3.73.05,7.46,0,11.19-.02,1.03.34,1.28,1.31,1.27,3.73-.05,7.46-.05,11.19,0,1.03.02,1.3-.34,1.26-1.31-.07-1.82-.02-3.65-.02-5.48Z"/>
  <path class="cls-1" d="M141.74,356.67c14.7-.01,29.4,0,44.1-.07,1.54,0,1.69.56,1.68,1.84-.06,4.95.01,9.9-.05,14.85-.02,1.25.27,1.67,1.61,1.67,15.69-.05,31.38-.06,47.07.01,1.55,0,1.69-.57,1.67-1.84-.06-4.72.07-9.45-.07-14.17-.06-1.87.38-2.38,2.32-2.37,22.85.08,45.7.03,68.55.09,1.83,0,2.5-.32,2.38-2.3-.19-3.34-.01-6.7-.07-10.05-.02-1.06.24-1.45,1.38-1.43,3.65.07,7.31.09,10.97,0,1.36-.04,1.43.58,1.41,1.63-.05,3.43.06,6.86-.05,10.28-.05,1.5.38,1.89,1.87,1.87,9.37-.07,18.74.01,28.11-.08,1.72-.02,2.15.41,2.11,2.12-.13,4.87,0,9.75-.08,14.62-.02,1.32.39,1.63,1.66,1.62,9.52-.05,19.04-.06,28.56.01,1.53.01,2.1-.44,1.81-1.89-.47-2.38.57-2.89,2.8-2.77,3.65.19,7.31.04,10.97.03-.01,10.13,0,20.27-.06,30.4,0,1.25.27,1.7,1.61,1.66,3.58-.09,7.16,0,10.74-.06,1.07-.02,1.43.25,1.42,1.38-.04,9.75-.04,19.51,0,29.26,0,1.07-.24,1.47-1.38,1.42-2.05-.09-4.12.05-6.17-.05-1.27-.06-1.69.3-1.65,1.62.09,3.43-.04,6.86.07,10.28.05,1.47-.34,1.89-1.85,1.88-10.9-.07-21.79,0-32.69-.08-1.68-.01-2.13.36-2.12,2.09.08,15.39.02,30.78.09,46.17,0,1.68-.34,2.21-2.09,2.12-3.27-.16-6.55.03-9.83-.08-1.48-.05-1.9.35-1.88,1.86.08,7.92,0,15.85.07,23.77.01,1.48-.35,1.93-1.86,1.88-3.5-.12-7.01,0-10.51-.06-1.09-.02-1.43.29-1.4,1.39.07,3.58-.03,7.16.06,10.74.03,1.29-.34,1.64-1.63,1.63-9.6-.05-19.2-.05-28.8,0-1.29,0-1.67-.34-1.63-1.63.09-3.5-.03-7.01.06-10.51.03-1.3-.35-1.65-1.64-1.63-5.03.07-10.06.08-15.09,0-1.3-.02-1.66.36-1.63,1.64.09,3.5-.03,7.01.06,10.51.03,1.31-.37,1.63-1.65,1.62-8.08-.06-16.15-.06-24.23,0-1.31,0-1.65-.37-1.62-1.65.09-3.35-.09-6.71.08-10.05.08-1.75-.45-2.09-2.12-2.09-19.89.06-39.77,0-59.66.09-1.92,0-2.36-.47-2.33-2.35.12-7.77,0-15.54.09-23.31.02-1.52-.42-1.86-1.88-1.85-13.94.06-27.89,0-41.83.08-1.73.01-2.15-.43-2.09-2.12.13-3.88.02-7.77.01-11.66,14.62,0,29.24,0,43.86.04,1.42,0,1.97-.28,1.94-1.84-.11-4.95-.08-9.9-.01-14.85.02-1.3-.36-1.66-1.66-1.66-14.16.04-28.32.05-42.49,0-1.32,0-1.65.4-1.64,1.67.07,5.56.04,11.12.04,16.67-3.8,0-7.61-.13-11.4.02-1.83.07-2.4-.31-2.38-2.29.11-10.79.02-21.59.09-32.38.01-1.58-.34-2.04-1.97-2-4.86.12-9.73,0-14.59.07-1.32.02-1.86-.19-1.81-1.69.13-4.02.06-8.06.08-12.08,0,0-.07.06-.07.06,10.13-.01,20.25.02,30.38-.07,1.52-.01,1.71.51,1.69,1.82-.07,4.8.03,9.59-.06,14.39-.03,1.57.17,2.19,2.03,2.18,13.93-.1,27.87-.08,41.8-.01,1.63,0,1.97-.43,1.97-2-.06-20.02-.06-40.05,0-60.08,0-1.55-.3-2.04-1.95-2.02-7.77.1-15.53,0-23.3.08-1.68.02-2.34-.27-2.27-2.17.16-4.49-.07-8.99.1-13.47.08-2.1-.32-2.8-2.63-2.75-9.13.16-18.27,0-27.41.12-1.79.02-2.12-.51-2.06-2.15.13-3.88.06-7.76.07-11.65,0,0-.06.06-.06.06ZM251.52,388.66c-11.58,0-23.16.01-34.75-.05-1.48,0-1.89.36-1.88,1.87.06,14.02.06,28.04,0,42.06,0,1.51.41,1.87,1.88,1.86,16.15-.06,32.31-.05,48.46-.05,0,3.81-.13,7.63.04,11.43.08,1.93-.48,2.36-2.37,2.35-15.24-.08-30.48-.02-45.72-.08-1.69,0-2.31.29-2.3,2.18.09,15.32.08,30.63,0,45.95,0,1.8.46,2.24,2.25,2.24,19.81-.07,39.63-.08,59.44.02,2.14.01,2.43-.67,2.41-2.55-.09-10.74-.01-21.49-.08-32.23,0-1.49.39-2,1.89-1.89,1.67.13,3.37-.12,5.02.07,2.02.23,2.46-.59,2.3-2.41-.16-1.82.01-3.66-.05-5.48-.03-.99.3-1.34,1.3-1.31,2.06.06,4.12-.04,6.17.04,1.21.05,1.73-.21,1.72-1.59-.05-15.7-.04-31.4,0-47.09,0-1.29-.34-1.68-1.65-1.66-5.56.08-11.12.04-16.69.05,0-10.05,0-20.1.04-30.15,0-1.19,0-1.94-1.62-1.92-8.07.09-16.14.07-24.21.01-1.31,0-1.66.38-1.65,1.66.07,5.56.04,11.12.04,16.67ZM356.69,434.39c-3.73,0-7.47-.15-11.19.03-2.09.1-2.6-.52-2.59-2.59.08-19.8.04-39.6.08-59.41,0-1.46-.17-2.11-1.91-2.11-15.54.07-31.07.07-46.61,0-1.58,0-1.86.53-1.83,1.95.08,4.87.08,9.75,0,14.62-.02,1.38.31,1.82,1.76,1.8,4.8-.1,9.6.06,14.39-.08,1.86-.06,2.21.54,2.21,2.28-.06,21.48-.03,42.96-.06,64.43,0,2.1.94,4.98-.4,6.1-1.27,1.07-4.06.5-6.16.35-2.05-.15-2.97.45-2.56,2.57.34,1.77-.46,2.22-2.12,2.08-1.82-.15-3.66.03-5.48-.05-1.16-.05-1.58.26-1.57,1.5.05,9.67.05,19.35,0,29.02,0,1.21.36,1.53,1.55,1.53,15.77-.04,31.53-.04,47.3,0,1.25,0,1.52-.43,1.5-1.58-.06-3.43.04-6.86-.05-10.28-.04-1.45.31-1.98,1.86-1.92,3.35.12,6.7-.04,10.05.07,1.53.05,1.87-.45,1.87-1.91-.06-16.15-.05-32.29-.06-48.44,14.63,0,29.26,0,43.88.05,1.44,0,1.92-.3,1.9-1.84-.08-8-.07-16-.01-24,0-1.27-.31-1.69-1.62-1.65-3.5.09-7.01-.03-10.51.06-1.3.03-1.66-.35-1.64-1.64.07-4.95-.03-9.91.07-14.86.03-1.53-.43-1.87-1.89-1.86-9.45.07-18.89.07-28.34,0-1.54-.01-1.85.46-1.84,1.9.06,14.63.04,29.26.05,43.88Z"/>
  <path class="cls-1" d="M77.7,246.96c-13.61-.02-27.23-.04-40.84-.06-1.6,0-3.19-.03-4.79-.04-.01-8.45-.09-16.91.01-25.36.02-1.78-.5-2.13-2.14-2.07-3.27.13-6.55-.05-9.82.08-1.56.06-1.84-.48-1.83-1.91.05-13.86-.01-27.73.08-41.59.01-1.94-.49-2.37-2.36-2.32-4.79.15-9.6,0-14.39.08-1.32.02-1.62-.39-1.61-1.65.04-14.17.04-28.34,0-42.5,0-1.3.35-1.65,1.64-1.63,4.95.07,9.9-.03,14.85.07,1.5.03,1.87-.39,1.86-1.87-.06-12.42,0-24.83-.08-37.25-.01-1.69.36-2.18,2.1-2.12,3.88.15,7.77.04,11.65.03l.02.02c0,17.28,0,34.57-.01,51.85q0,3-2.88,3.01c-4.49,0-8.99.05-13.48-.03-1.47-.03-1.99.4-1.96,1.93.08,4.87.08,9.75,0,14.62-.02,1.43.49,1.82,1.85,1.8,4.57-.07,9.14.09,13.7-.07,2.15-.08,2.83.45,2.82,2.72-.11,13.63-.03,27.26-.09,40.89,0,1.68.41,2.28,2.16,2.2,3.19-.14,6.4.04,9.59-.07,1.64-.06,2.05.53,2.03,2.09-.07,7.54.05,15.08-.08,22.61-.04,2.14.43,2.86,2.72,2.82,9.06-.14,18.12-.02,27.18-.09,1.69-.01,2.26.42,2.2,2.16-.14,3.88-.07,7.76-.09,11.65Z"/>
  <path class="cls-1" d="M434.43,265.21c-3.81,0-7.62-.12-11.43.03-1.86.07-2.39-.36-2.38-2.31.08-19.81.02-39.62.1-59.43,0-1.86-.37-2.38-2.32-2.37-13.79.1-27.58.08-41.37.01-1.68,0-2.24.35-2.13,2.1.15,2.26.85,5.33-.3,6.62-1.31,1.47-4.43.4-6.76.45-3.12.08-6.25.11-9.37-.02-1.53-.06-2.1.44-1.81,1.89.47,2.37-.57,2.92-2.8,2.77-2.96-.2-5.95.08-8.91-.1-1.83-.11-2.3.56-2.02,2.16.32,1.89-.22,2.66-2.36,2.52-3.26-.22-6.55-.1-9.82-.03-1.15.02-1.59-.23-1.56-1.49.09-3.58.07-7.16,0-10.74-.02-1.16.27-1.61,1.5-1.54,1.9.1,3.82-.09,5.71.06,1.61.13,2.27-.38,1.95-1.98-.44-2.23.48-3.05,2.65-2.62,1.65.32,2.23-.43,1.92-1.98-.46-2.29.57-2.68,2.69-2.65,9.06.13,18.13.02,27.2.09,1.59.01,2.33-.2,2.17-2.05-.2-2.34-.08-4.72-.1-7.08.99-.02,1.98-.05,2.96-.05,24.94,0,49.87,0,74.81-.01l.02.02c0,4.04-.06,8.08.02,12.12.03,1.32-.38,1.64-1.65,1.62-4.95-.07-9.91,0-14.86-.05-1.24-.01-1.86.07-1.85,1.65.07,20.8.07,41.61.08,62.41Z"/>
  <path class="cls-1" d="M45.72,342.9c16.15,0,32.3,0,48.46.05,1.42,0,1.97-.27,1.91-1.83-.13-3.5,0-7.01-.06-10.51-.02-1.07.26-1.45,1.38-1.43,3.66.07,7.31.06,10.97,0,1.09-.02,1.43.3,1.41,1.4-.07,3.5.06,7.01-.06,10.51-.05,1.52.42,1.87,1.89,1.86,9.37-.07,18.74.02,28.11-.08,1.76-.02,2.14.48,2.08,2.14-.14,3.88-.06,7.77-.07,11.65l.06-.06c-5.32,0-10.65.1-15.97-.02-1.79-.04-2.53.25-2.4,2.27.2,3.26-.03,6.54.09,9.81.06,1.48-.44,1.76-1.79,1.72-3.27-.1-6.55.09-9.81-.08-1.82-.09-2.21.48-2.2,2.23.06,16.05.02,32.1,0,48.14l.06-.07c-3.96.01-7.92-.07-11.87.08-1.71.07-1.92-.56-1.91-2.05.05-19.94,0-39.88.07-59.82,0-1.75-.39-2.24-2.2-2.23-15.3.08-30.59,0-45.89.1-1.97.01-2.36-.54-2.29-2.38.14-3.8.02-7.61.01-11.41Z"/>
  <path class="cls-1" d="M77.75,59.43c0-9.98.06-19.96-.03-29.94-.02-1.71.41-2.12,2.11-2.1,9.37.09,18.74,0,28.11.08,1.48.01,1.93-.36,1.87-1.86-.12-3.35.04-6.7-.07-10.05-.05-1.49.37-1.88,1.87-1.87,10.05.07,20.11.03,30.16.02,0,0,.02.02.02.02,0,3.88-.07,7.77.02,11.65.04,1.56-.39,2.13-2.03,2.09-4.57-.1-9.14.08-13.7-.09-2.14-.08-2.93.6-2.59,2.67.28,1.69-.59,2.07-2.1,1.98-1.82-.1-3.66.03-5.48-.04-1.2-.04-1.63.42-1.58,1.6.07,1.6-.12,3.21.05,4.79.23,2.14-.4,2.9-2.69,2.83-6.09-.17-12.18-.02-18.27-.09-1.48-.02-1.99.41-1.96,1.93.08,4.8-.03,9.59.07,14.39.03,1.64-.53,2.07-2.09,2.03-3.88-.09-7.77-.02-11.65-.02l-.02-.02Z"/>
  <path class="cls-1" d="M342.96,13.7c14.55,0,29.1.04,43.65-.03,1.7,0,2.16.37,2.11,2.1-.13,4.87,0,9.75-.08,14.62-.02,1.28.32,1.66,1.63,1.64,5.03-.08,10.05.01,15.08-.06,1.28-.02,1.67.32,1.64,1.62-.08,4.04-.02,8.07-.02,12.11l-.02.02c-9.82,0-19.64-.06-29.46.03-1.94.02-2.67-.38-2.58-2.49.17-4.49-.04-8.98.1-13.47.06-1.9-.51-2.44-2.41-2.42-9.14.1-18.27,0-27.41.09-1.86.02-2.32-.58-2.27-2.33.12-3.8.03-7.61.03-11.42l.02-.02Z"/>
  <path class="cls-1" d="M406.97,45.71c8.53,0,17.06.05,25.59-.02,1.5-.01,1.89.38,1.87,1.87-.1,4.95,0,9.9-.07,14.85-.02,1.29.34,1.65,1.63,1.63,4.95-.07,9.9.03,14.85-.07,1.49-.03,1.88.37,1.87,1.87-.07,8.53-.03,17.06-.02,25.59l-.02.02c-3.73,0-7.45-.11-11.17.03-1.94.07-2.71-.37-2.58-2.48.19-3.11-.02-6.23.08-9.35.04-1.47-.4-1.99-1.92-1.96-4.79.08-9.58-.03-14.37.06-1.6.03-2.09-.46-2.06-2.06.09-4.79-.02-9.58.06-14.37.03-1.52-.49-1.97-1.96-1.92-3.11.09-6.24-.11-9.35.08-2.11.13-2.56-.64-2.48-2.58.14-3.72.04-7.45.03-11.17l.02-.02Z"/>
  <path class="cls-1" d="M452.7,91.43c4.04,0,8.07.06,12.11-.02,1.31-.03,1.63.37,1.62,1.64-.05,9.6-.05,19.19,0,28.79,0,1.29-.34,1.67-1.63,1.63-3.43-.09-6.86.05-10.28-.07-1.5-.05-1.88.38-1.87,1.87.07,10.05.04,20.11.05,30.16l-.02.02c-3.88,0-7.77-.07-11.65.02-1.56.04-2.1-.39-2.09-2.03.06-13.93.05-27.86,0-41.8,0-1.48.41-2,1.93-1.96,3.27.1,6.55-.05,9.82.06,1.65.06,2.05-.55,2.03-2.1-.08-5.4-.04-10.81-.04-16.22l.02-.02Z"/>
  <path class="cls-1" d="M448.09,342.96v-64.08c3.95.01,7.91.08,11.86,0,1.4-.03,1.92.23,1.92,1.81-.06,20.15-.06,40.3,0,60.45,0,1.58-.52,1.84-1.92,1.81-3.95-.08-7.91,0-11.86,0Z"/>
  <path class="cls-1" d="M18.34,260.58v54.94c-3.95-.01-7.91-.08-11.86,0-1.39.03-1.93-.22-1.92-1.81.07-17.11.07-34.21,0-51.32,0-1.59.53-1.83,1.92-1.81,3.95.07,7.91,0,11.86,0Z"/>
  <path class="cls-1" d="M18.28,315.47c3.95,0,7.9.11,11.84-.02,1.65-.05,2.01.47,1.95,2.02-.12,3.41.01,6.83-.06,10.25-.03,1.19.32,1.54,1.52,1.52,3.41-.08,6.83.06,10.25-.06,1.55-.06,2.08.3,2.02,1.95-.13,3.94-.03,7.89-.02,11.84-8.51-.01-17.01-.07-25.52,0-1.6.01-2-.38-1.98-1.98.08-8.5.02-17.01,0-25.52Z"/>
  <path class="cls-1" d="M452.7,155.45c4.04,0,8.07.06,12.11-.02,1.3-.03,1.63.36,1.63,1.64-.05,9.6-.05,19.19,0,28.79,0,1.28-.32,1.67-1.63,1.64-4.03-.08-8.07-.02-12.11-.02l-.02-.02v-31.99s.02-.02.02-.02Z"/>
  <path class="cls-1" d="M402.37,370.39c0-3.95.11-7.9-.02-11.84-.05-1.66.48-1.96,2.02-1.95,10.02.06,20.04.02,30.06.02-.01,3.95-.12,7.89,0,11.84.05,1.66-.49,1.95-2.02,1.94-10.02-.06-20.03-.01-30.05,0Z"/>
  <path class="cls-1" d="M32.02,86.86c0-3.96.08-7.92-.03-11.88-.04-1.51.4-1.87,1.87-1.86,10.05.06,20.1.03,30.16.02l.02.02c0,3.87-.1,7.74.03,11.61.06,1.77-.57,2.14-2.22,2.13-9.94-.07-19.88-.03-29.82-.02l-.02-.02Z"/>
  <path class="cls-1" d="M448.15,278.93c-4.09,0-8.18-.06-12.27,0-1.19.02-1.53-.32-1.51-1.51.06-4.09.01-8.18,0-12.27,4.09.01,8.17.07,12.26,0,1.19-.02,1.53.32,1.51,1.51-.06,4.09,0,8.17,0,12.26Z"/>
  <path class="cls-1" d="M434.37,356.67c0-4.09.06-8.18,0-12.27-.02-1.19.32-1.53,1.51-1.51,4.09.06,8.18.01,12.27,0-.01,4.09-.07,8.17,0,12.26.02,1.19-.32,1.53-1.51,1.51-4.09-.06-8.17,0-12.26,0Z"/>
  <path class="cls-1" d="M64.03,73.14c0-4.03.06-8.07-.02-12.1-.03-1.29.34-1.66,1.63-1.63,4.03.08,8.07.02,12.1.02,0,0,.02.02.02.02,0,3.93-.07,7.87.02,11.8.03,1.49-.44,1.97-1.93,1.93-3.93-.08-7.87-.02-11.8-.02l-.02-.02Z"/>
  <path class="cls-1" d="M123.52,434.33c-4.09.01-8.18-.02-12.27.06-1.19.02-1.53-.32-1.51-1.51.08-4.09.05-8.18.06-12.27l-.06.07c4.09-.01,8.18.02,12.27-.06,1.19-.02,1.53.32,1.51,1.51-.08,4.09-.05,8.18-.06,12.27l.07-.06Z"/>
  <path class="cls-1" d="M32.01,247.39c0,3.81-.07,7.62.06,11.42.05,1.57-.48,1.87-1.91,1.84-3.96-.09-7.92-.02-11.88-.01.01-3.95.08-7.9,0-11.85-.02-1.38.19-2,1.8-1.93,3.26.14,6.53.05,9.8.04.76,0,1.5-.05,2.12.5Z"/>
  <path class="cls-3" d="M64.05,73.17c3.93,0,7.87-.07,11.8.02,1.49.03,1.97-.44,1.93-1.93-.08-3.93-.02-7.87-.02-11.8,3.88,0,7.77-.07,11.65.02,1.56.04,2.13-.39,2.09-2.03-.1-4.79.02-9.59-.07-14.39-.03-1.52.48-1.95,1.96-1.93,6.09.07,12.18-.08,18.27.09,2.3.06,2.92-.69,2.69-2.83-.17-1.58.02-3.2-.05-4.79-.05-1.18.38-1.64,1.58-1.6,1.82.07,3.66-.06,5.48.04,1.51.09,2.38-.29,2.1-1.98-.34-2.07.45-2.74,2.59-2.67,4.56.17,9.14-.02,13.7.09,1.64.04,2.07-.53,2.03-2.09-.09-3.88-.02-7.77-.02-11.65,67.05,0,134.11,0,201.16,0,0,3.81.09,7.62-.03,11.42-.05,1.76.4,2.35,2.27,2.33,9.14-.1,18.27,0,27.41-.09,1.91-.02,2.47.51,2.41,2.42-.14,4.49.08,8.99-.1,13.47-.08,2.11.65,2.5,2.58,2.49,9.82-.09,19.64-.04,29.46-.03,0,3.73.11,7.45-.03,11.17-.07,1.94.37,2.71,2.48,2.58,3.11-.19,6.23.02,9.35-.08,1.47-.04,1.99.4,1.96,1.92-.08,4.79.03,9.58-.06,14.37-.03,1.6.46,2.09,2.06,2.06,4.79-.09,9.58.02,14.37-.06,1.52-.03,1.97.49,1.92,1.96-.09,3.11.11,6.24-.08,9.35-.13,2.11.64,2.55,2.58,2.48,3.72-.14,7.45-.04,11.17-.03,0,5.41-.04,10.81.04,16.22.02,1.55-.38,2.16-2.03,2.1-3.27-.12-6.55.03-9.82-.06-1.52-.05-1.93.48-1.93,1.96.05,13.93.05,27.86,0,41.8,0,1.64.53,2.07,2.09,2.03,3.88-.09,7.76-.02,11.65-.02v31.99c-24.94,0-49.87,0-74.81.01-.99,0-1.98.03-2.96.05,0,0,.03.02.03.02,0-3.89-.07-7.77.06-11.65.06-1.73-.49-2.18-2.19-2.17-20.64.06-41.29.05-61.93.06,0,0,.05.05.05.05,0-9.97-.04-19.93.07-29.89.02-1.93-.69-2.25-2.37-2.22-4.64.09-9.28-.03-13.92.06-1.58.03-2.11-.42-2.08-2.04.1-4.79-.02-9.59.06-14.38.03-1.51-.47-1.96-1.96-1.93-3.95.09-7.91.05-11.87.05,0,0,.05.05.05.05,0-4.04-.02-8.07.05-12.11.02-1.29-.42-1.73-1.71-1.71-4.03.07-8.07.04-12.11.05,0,0,.05.05.05.05,0-4.03-.02-8.06.05-12.08.02-1.26-.37-1.73-1.68-1.73-14.14.04-28.27.04-42.41,0-1.31,0-1.7.47-1.68,1.73.06,4.03.04,8.06.05,12.08,0,0,.05-.05.05-.05-10.05,0-20.11,0-30.16-.05-1.49,0-1.99.43-1.95,1.94.1,3.96.05,7.92.05,11.88,0,0,.05-.05.05-.05-3.66,0-7.32.14-10.97-.08-2.35-.14-2.9.59-2.88,2.89.12,12.95.06,25.9.06,38.85q0,4.03-4.14,4.03c-1.22,0-2.44.01-3.66,0-.78-.01-1.28.18-1.35,1.11-.09,1.1.59,2.63-.44,3.2-.94.53-2.36.22-3.58.25-1.07.03-2.14.09-3.2-.01-1.5-.14-1.98.44-1.95,1.94.08,4.42.04,8.84.03,13.26-.02,3.52.39,3.09-3.22,3.11-2.89.02-5.79.06-8.68-.02-1.4-.04-1.87.42-1.83,1.83.09,3.04-.16,6.11.08,9.14.2,2.45-.73,2.91-2.94,2.83-4.41-.17-8.84.03-13.25-.09-1.71-.04-2.21.46-2.19,2.18.09,8.46.05,16.91.06,25.37,0,0,.05-.05.05-.05-3.95,0-7.9.04-11.85-.05-1.45-.03-2.02.36-1.98,1.91.1,3.19-.06,6.38.07,9.57.07,1.77-.44,2.33-2.27,2.31-9.95-.08-19.9-.03-29.85-.02,0,0,.02.03.02.03.02-3.88-.05-7.77.09-11.65.06-1.74-.51-2.18-2.2-2.16-9.06.08-18.12-.05-27.18.09-2.29.04-2.75-.69-2.72-2.82.13-7.54.01-15.08.08-22.61.01-1.56-.39-2.15-2.03-2.09-3.19.12-6.4-.06-9.59.07-1.75.07-2.17-.52-2.16-2.2.06-13.63-.02-27.26.09-40.89.02-2.27-.66-2.8-2.82-2.72-4.56.17-9.14,0-13.7.07-1.36.02-1.88-.37-1.85-1.8.07-4.87.08-9.75,0-14.62-.03-1.52.49-1.95,1.96-1.93,4.49.08,8.98.03,13.48.03q2.88,0,2.88-3.01c0-17.28,0-34.57.01-51.85,9.94,0,19.88-.04,29.82.02,1.65.01,2.27-.37,2.22-2.13-.13-3.87-.03-7.74-.03-11.61Z"/>
  <path class="cls-1" d="M123.51,233.26c0-8.46.03-16.91-.06-25.37-.02-1.72.48-2.22,2.19-2.18,4.42.11,8.84-.08,13.25.09,2.21.08,3.14-.38,2.94-2.83-.24-3.03,0-6.09-.08-9.14-.04-1.4.43-1.87,1.83-1.83,2.89.09,5.79.04,8.68.02,3.61-.03,3.21.41,3.22-3.11.02-4.42.06-8.84-.03-13.26-.03-1.5.44-2.08,1.95-1.94,1.06.1,2.13.04,3.2.01,1.21-.03,2.63.28,3.58-.25,1.03-.58.36-2.1.44-3.2.07-.94.57-1.12,1.35-1.11,1.22.02,2.44,0,3.66,0q4.14,0,4.14-4.03c0-12.95.06-25.9-.06-38.85-.02-2.3.53-3.04,2.88-2.89,3.64.22,7.31.07,10.97.08-.02,15.22-.05,30.45-.07,45.67,0,5.48-.05,10.96.03,16.44.02,1.43-.27,1.95-1.83,1.91-4.87-.11-9.74.01-14.62-.07-1.43-.02-1.95.28-1.91,1.84.11,4.87-.01,9.74.07,14.62.02,1.43-.28,1.97-1.84,1.91-3.42-.13-6.85.01-10.28-.07-1.25-.03-1.71.27-1.67,1.61.1,3.42-.04,6.85.07,10.28.04,1.45-.31,1.93-1.85,1.9-4.95-.11-9.9,0-14.84-.07-1.26-.02-1.7.29-1.66,1.62.09,3.5-.02,7,.06,10.5.03,1.27-.31,1.68-1.62,1.66-4.03-.06-8.07.02-12.1.04Z"/>
  <path class="cls-1" d="M324.72,292.61c3.96,0,7.93.06,11.89-.02,1.32-.03,1.83.2,1.81,1.71-.09,8-.09,16,0,24,.02,1.65-.63,1.99-1.96,1.75-2.18-.39-2.97.39-2.7,2.64.21,1.73-.01,3.5.06,5.25.04,1.01-.29,1.3-1.29,1.29-3.73-.05-7.47-.06-11.2,0-1.03.02-1.29-.34-1.26-1.31.06-2.06-.09-4.12.06-6.17.11-1.5-.46-1.74-1.8-1.72-4.88.08-9.76.11-14.63-.01-1.7-.04-2.04.54-1.93,2.06.13,1.74-.06,3.51.06,5.25.1,1.43-.26,1.98-1.83,1.92-3.35-.13-6.71-.11-10.06,0-1.46.05-2.15-.33-1.86-1.85.44-2.29-.44-3.04-2.76-2.81-2.02.21-4.78.76-5.95-.27-1.35-1.2-.41-4-.42-6.1-.04-12.34.03-24.69-.07-37.03-.02-1.96.54-2.32,2.38-2.31,13.72.08,27.43.09,41.15,0,2-.02,2.35.59,2.29,2.4-.11,3.8.03,7.61.07,11.41-4.61,0-9.22.02-13.82.03-5.62-.02-11.24-.03-16.86-.09-1.04-.01-1.47.23-1.46,1.37.05,6.69.08,13.37-.01,20.06-.02,1.81,1.08,1.55,2.06,1.41.96-.13,2.64.92,2.56-1.36-.07-2.05.07-4.11-.04-6.15-.07-1.34.42-1.64,1.68-1.63,4.02.05,8.05-.02,12.07-.04.61.02,1.22.06,1.82.07,2.35.04,5.52-.84,6.84.35,1.5,1.35.55,4.59.41,6.98-.13,2.16,1.09,1.82,2.37,1.83,1.31.01,2.38.25,2.34-1.86-.15-7.01-.02-14.02,0-21.03Z"/>
  <path class="cls-1" d="M278.86,123.48c3.96,0,7.91.04,11.87-.05,1.48-.04,1.98.42,1.96,1.93-.08,4.79.03,9.59-.06,14.38-.03,1.62.5,2.08,2.08,2.04,4.64-.09,9.28.03,13.92-.06,1.68-.03,2.39.29,2.37,2.22-.11,9.96-.06,19.93-.07,29.89-4.03-.02-8.07-.11-12.1-.04-1.31.02-1.64-.38-1.62-1.65.07-5.02-.02-10.05.06-15.07.02-1.31-.37-1.64-1.65-1.63-4.95.07-9.9-.03-14.84.07-1.51.03-1.87-.41-1.86-1.88.04-10.05-.02-20.09-.04-30.14Z"/>
  <path class="cls-1" d="M310.87,173.77c20.64,0,41.29,0,61.93-.06,1.7,0,2.25.45,2.19,2.17-.13,3.88-.05,7.77-.06,11.65-12.87-.02-25.73-.06-38.6-.07-7.84-.01-15.69-.04-23.53.03-1.46.01-1.93-.32-1.9-1.85.09-3.95-.01-7.91-.04-11.87Z"/>
  <path class="cls-1" d="M45.75,281.17c0-4.72.07-9.44-.04-14.16-.04-1.54.45-1.89,1.9-1.85,3.42.1,6.85.1,10.28,0,1.34-.04,1.63.42,1.61,1.67-.07,4.95.04,9.9-.07,14.84-.03,1.55.47,1.87,1.91,1.84,4.87-.09,9.74,0,14.62-.06,1.26-.02,1.87.11,1.85,1.66-.09,8.07-.07,16.14-.01,24.21.01,1.32-.4,1.64-1.66,1.61-3.5-.08-7.01-.09-10.5,0-1.34.04-1.64-.42-1.61-1.67.08-3.42-.06-6.85.07-10.28.06-1.56-.48-1.86-1.91-1.84-4.87.08-9.75-.04-14.62.07-1.56.04-1.86-.48-1.83-1.91.08-4.72.03-9.44.03-14.16Z"/>
  <path class="cls-1" d="M77.68,246.93c9.95,0,19.9-.06,29.85.02,1.84.02,2.34-.54,2.27-2.31-.13-3.18.04-6.38-.07-9.57-.05-1.54.52-1.94,1.98-1.91,3.95.09,7.9.04,11.85.05-.02,8.45-.11,16.9-.03,25.35.02,1.72-.42,2.11-2.12,2.1-13.86-.08-27.71-.07-41.57,0-1.67,0-2.19-.34-2.13-2.09.13-3.88,0-7.76-.03-11.64Z"/>
  <path class="cls-1" d="M253.99,196.61c6.16,0,12.33.04,18.49-.03,1.4-.02,2.18.23,1.89,1.82-.41,2.19.33,3.28,2.71,2.79,1.74-.36,2.11.58,1.86,2.03-.35,2.03.39,2.72,2.51,2.6,2.16-.12,5.07-1.02,6.31.39,1.07,1.21.36,4.05.31,6.17-.06,2.33,1.02,5.44-.45,6.75-1.28,1.15-4.34.31-6.61.34-.99.01-1.98,0-2.97,0-3.36,0-3.43,0-3.64-3.42-.07-1.13-.57-1.17-1.42-1.16-1.98.03-3.96-.09-5.93.04-1.5.1-2.12-.39-1.83-1.87.45-2.32-.51-2.83-2.77-2.79-9.13.14-18.26.03-27.39.09-1.47.01-1.94-.34-1.88-1.86.12-3.34.11-6.7,0-10.04-.05-1.48.35-1.91,1.86-1.89,6.32.09,12.63.04,18.95.04Z"/>
  <path class="cls-1" d="M219.52,109.81c0-4.03.02-8.06-.05-12.08-.02-1.26.36-1.73,1.68-1.73,14.14.04,28.27.04,42.41,0,1.31,0,1.7.47,1.68,1.73-.06,4.03-.04,8.06-.05,12.08-15.22,0-30.45,0-45.67,0Z"/>
  <path class="cls-1" d="M187.52,123.53c0-3.96.04-7.92-.05-11.88-.04-1.51.46-1.95,1.95-1.94,10.05.06,20.11.05,30.16.05-.02,3.96-.13,7.91-.04,11.87.03,1.52-.42,1.87-1.89,1.86-10.04-.04-20.09.02-30.13.04Z"/>
  <path class="cls-1" d="M370.38,240.12c0,1.75-.07,3.5.02,5.25.06,1.15-.22,1.59-1.48,1.56-3.57-.09-7.15-.07-10.73,0-1.15.02-1.59-.22-1.56-1.48.09-3.57.07-7.15,0-10.73-.02-1.15.23-1.59,1.48-1.56,3.57.09,7.15.07,10.73,0,1.15-.02,1.63.22,1.56,1.48-.11,1.82-.03,3.65-.03,5.48Z"/>
  <path class="cls-1" d="M260.65,240.14c0,1.83-.05,3.65.02,5.48.04.97-.24,1.32-1.26,1.31-3.73-.06-7.46-.05-11.19,0-.97.01-1.32-.24-1.31-1.27.06-3.73.05-7.46,0-11.19-.01-.97.24-1.32,1.27-1.31,3.73.06,7.46.07,11.19,0,1.24-.03,1.33.54,1.3,1.5-.05,1.82-.02,3.65-.02,5.48Z"/>
  <path class="cls-1" d="M265.15,109.76c4.04,0,8.07.02,12.11-.05,1.29-.02,1.73.42,1.71,1.71-.07,4.03-.04,8.07-.05,12.11-4.03-.02-8.06-.1-12.08-.04-1.29.02-1.66-.35-1.64-1.64.06-4.03-.02-8.06-.04-12.08Z"/>
  <path class="cls-6" d="M123.45,434.4c.01-4.09-.02-8.18.06-12.27.02-1.19-.32-1.53-1.51-1.51-4.09.08-8.18.05-12.27.06.01-16.05.05-32.1,0-48.14,0-1.75.38-2.32,2.2-2.23,3.26.16,6.54-.02,9.81.08,1.35.04,1.85-.24,1.79-1.72-.13-3.27.11-6.55-.09-9.81-.13-2.03.61-2.31,2.4-2.27,5.32.11,10.65.03,15.97.02,0,3.88.06,7.77-.07,11.65-.06,1.64.27,2.17,2.06,2.15,9.14-.11,18.27.05,27.41-.12,2.31-.04,2.71.65,2.63,2.75-.17,4.49.06,8.99-.1,13.47-.07,1.89.59,2.18,2.27,2.17,7.77-.08,15.53.02,23.3-.08,1.65-.02,1.96.47,1.95,2.02-.06,20.02-.06,40.05,0,60.08,0,1.57-.34,2.01-1.97,2-13.93-.07-27.87-.09-41.8.01-1.86.01-2.06-.61-2.03-2.18.09-4.8,0-9.59.06-14.39.02-1.3-.17-1.83-1.69-1.82-10.13.09-20.25.06-30.38.07Z"/>
  <path class="cls-2" d="M356.64,434.35c0,16.15,0,32.29.06,48.44,0,1.46-.34,1.97-1.87,1.91-3.35-.12-6.7.05-10.05-.07-1.55-.06-1.9.48-1.86,1.92.1,3.42,0,6.85.05,10.28.02,1.15-.25,1.58-1.5,1.58-15.77-.04-31.53-.04-47.3,0-1.19,0-1.55-.32-1.55-1.53.05-9.67.05-19.35,0-29.02,0-1.25.42-1.56,1.57-1.5,1.82.08,3.66-.09,5.48.05,1.66.13,2.46-.31,2.12-2.08-.41-2.12.51-2.71,2.56-2.57,2.1.15,4.89.72,6.16-.35,1.34-1.12.4-4,.4-6.1.03-21.48,0-42.96.06-64.43,0-1.73-.35-2.33-2.21-2.28-4.79.15-9.6-.01-14.39.08-1.45.03-1.78-.42-1.76-1.8.08-4.87.08-9.75,0-14.62-.02-1.41.25-1.95,1.83-1.95,15.54.06,31.07.07,46.61,0,1.74,0,1.91.64,1.91,2.11-.04,19.8,0,39.6-.08,59.41,0,2.08.5,2.69,2.59,2.59,3.72-.17,7.46-.03,11.19-.03,0,0-.04-.04-.04-.04Z"/>
  <path class="cls-2" d="M278.92,402.38c5.56,0,11.13.03,16.69-.05,1.31-.02,1.65.38,1.65,1.66-.04,15.7-.04,31.4,0,47.09,0,1.38-.51,1.64-1.72,1.59-2.05-.08-4.12.02-6.17-.04-1-.03-1.33.31-1.3,1.31.06,1.83-.11,3.67.05,5.48.16,1.82-.28,2.65-2.3,2.41-1.65-.19-3.36.06-5.02-.07-1.5-.12-1.9.39-1.89,1.89.06,10.74-.01,21.49.08,32.23.02,1.88-.27,2.56-2.41,2.55-19.81-.1-39.63-.08-59.44-.02-1.78,0-2.26-.44-2.25-2.24.08-15.32.08-30.63,0-45.95-.01-1.9.61-2.19,2.3-2.18,15.24.06,30.48,0,45.72.08,1.89.01,2.45-.43,2.37-2.35-.16-3.8-.04-7.62-.04-11.43,0,0-.04.03-.04.03,3.89,0,7.78-.1,11.66.03,1.71.06,2.15-.4,2.14-2.12-.08-9.98-.03-19.96-.02-29.95,0,0-.04.04-.04.04Z"/>
  <path class="cls-4" d="M265.23,434.35c-16.15,0-32.31,0-48.46.05-1.48,0-1.89-.36-1.88-1.86.06-14.02.06-28.04,0-42.06,0-1.5.4-1.88,1.88-1.87,11.58.07,23.16.05,34.75.05,0,0-.04-.03-.04-.03.01,4.08.07,8.16,0,12.24-.02,1.19.32,1.53,1.51,1.51,4.08-.06,8.16,0,12.24,0l-.04-.04v32.03l.04-.03Z"/>
  <path class="cls-4" d="M356.69,434.39c0-14.63,0-29.26-.05-43.88,0-1.44.3-1.92,1.84-1.9,9.45.08,18.89.07,28.34,0,1.46-.01,1.92.33,1.89,1.86-.1,4.95,0,9.9-.07,14.86-.02,1.29.34,1.67,1.64,1.64,3.5-.09,7.01.03,10.51-.06,1.32-.03,1.63.38,1.62,1.65-.06,8-.07,16,.01,24,.02,1.54-.46,1.85-1.9,1.84-14.63-.06-29.26-.04-43.88-.05,0,0,.04.04.04.04Z"/>
  <path class="cls-2" d="M155.5,484.69c0-5.56.03-11.12-.04-16.67-.02-1.27.31-1.68,1.64-1.67,14.16.05,28.32.05,42.49,0,1.3,0,1.67.36,1.66,1.66-.07,4.95-.1,9.9.01,14.85.03,1.57-.51,1.85-1.94,1.84-14.62-.05-29.24-.04-43.86-.04,0,0,.04.04.04.04Z"/>
  <path class="cls-2" d="M251.52,388.66c0-5.56.03-11.12-.04-16.67-.02-1.29.34-1.67,1.65-1.66,8.07.06,16.14.08,24.21-.01,1.63-.02,1.62.73,1.62,1.92-.03,10.05-.03,20.1-.04,30.15,0,0,.04-.04.04-.04-4.59,0-9.18,0-13.77.01l.04.04c0-4.01-.07-8.01.02-12.02.03-1.4-.36-1.8-1.76-1.76-4,.09-8.01.03-12.02.02l.04.03Z"/>
  <path class="cls-5" d="M310.96,306.27c-4.02.02-8.05.1-12.07.04-1.26-.02-1.75.29-1.68,1.63.11,2.05-.03,4.1.04,6.15.08,2.28-1.6,1.22-2.56,1.36-.98.14-2.09.4-2.06-1.41.09-6.68.06-13.37.01-20.06,0-1.14.42-1.39,1.46-1.37,5.62.06,11.24.07,16.86.09,0,4.52,0,9.05,0,13.57Z"/>
  <path class="cls-6" d="M310.96,306.27c0-4.52,0-9.05,0-13.57,4.61,0,9.21-.02,13.82-.03,0,0-.06-.06-.06-.06-.02,7.01-.14,14.02,0,21.03.04,2.11-1.03,1.87-2.34,1.86-1.27-.01-2.5.33-2.37-1.83.14-2.39,1.09-5.62-.41-6.98-1.31-1.19-4.49-.31-6.84-.35-.61-.01-1.22-.05-1.82-.07Z"/>
  <path class="cls-1" d="M265.19,402.35c4.59,0,9.18,0,13.77-.01,0,9.98-.06,19.96.02,29.95.01,1.72-.43,2.18-2.14,2.12-3.88-.13-7.77-.04-11.66-.03v-32.03Z"/>
  <path class="cls-1" d="M251.47,388.63c4.01,0,8.01.07,12.02-.02,1.4-.03,1.8.36,1.76,1.76-.09,4-.03,8.01-.02,12.02-4.08-.01-8.16-.07-12.24,0-1.19.02-1.53-.32-1.51-1.51.06-4.08,0-8.16,0-12.24Z"/>
</svg>