<?xml version="1.0" encoding="UTF-8"?>
<svg id="Layer_1" data-name="Layer 1" xmlns="http://www.w3.org/2000/svg" viewBox="0 0 1920 1080">
  <defs>
    <style>
      .cls-1, .cls-2, .cls-3, .cls-4, .cls-5, .cls-6, .cls-7, .cls-8, .cls-9, .cls-10, .cls-11, .cls-12, .cls-13, .cls-14, .cls-15, .cls-16, .cls-17 {
        stroke-width: 0px;
      }

      .cls-2 {
        fill: #787878;
      }

      .cls-3 {
        fill: #4e4e4e;
      }

      .cls-4 {
        fill: #646668;
      }

      .cls-5 {
        fill: #262623;
      }

      .cls-6 {
        fill: #3f4040;
      }

      .cls-7 {
        fill: #0f0f0f;
      }

      .cls-8 {
        fill: #141414;
      }

      .cls-9 {
        fill: #151515;
      }

      .cls-10 {
        fill: #abaca7;
      }

      .cls-11 {
        fill: #fdf3d9;
      }

      .cls-12 {
        fill: #ff8827;
      }

      .cls-13 {
        fill: #efefef;
      }

      .cls-14 {
        fill: #e5e5e5;
      }

      .cls-15 {
        fill: #f4f4f4;
      }

      .cls-16 {
        fill: #010101;
      }

      .cls-17 {
        fill: #060606;
      }
    </style>
  </defs>
  <g>
    <rect class="cls-1" x="-.3" width="1925.47" height="1080"/>
    <rect class="cls-15" x="18.66" y="22.22" width="1882.68" height="1035.56"/>
  </g>
  <g>
    <path class="cls-12" d="M220.54,241.14l-26.17,147.34h-43.33l-38.83-250.13h44.72l10.05,86.32,9.88,98.8h2.77l23.23-127.92h38.13l23.23,127.92h2.77l9.88-98.8,10.05-86.32h44.72l-38.83,250.13h-43.33l-26.17-147.34h-2.77Z"/>
    <path class="cls-12" d="M527.53,334.75c-3.99,33.8-37.79,57.9-82.16,57.9-55.64,0-87.54-31.2-87.54-85.46v-30.68c0-50.1,34.67-83.2,86.67-83.2s83.03,33.28,83.03,84.59v26.35h-123.24v10.4c0,24.96,16.12,41.25,40.91,41.25,19.07,0,34.15-8.67,37.61-21.15h44.72ZM404.28,273.91h77.48c0-27.39-14.21-43.86-38.13-43.86s-39.35,16.47-39.35,43.86Z"/>
    <path class="cls-12" d="M580.05,388.48v-37.79h60.67v-188.42h-57.55v-37.79h105.04v226.21h57.03v37.79h-165.19Z"/>
    <path class="cls-12" d="M920.32,264.02c-3.12-21.49-15.95-31.89-36.57-31.89-25.48,0-39.52,19.07-39.52,54.08v12.83c0,35.01,14.04,54.08,39.52,54.08,20.8,0,33.28-9.88,36.57-30.33h46.46c-4.16,45.59-33.28,69.86-82.68,69.86-56.34,0-87.54-31.89-87.54-89.96v-20.11c0-58.07,31.2-89.96,87.54-89.96,49.4,0,78.18,24.61,82.68,71.42h-46.46Z"/>
    <path class="cls-12" d="M1011.84,307.71v-29.47c0-52.17,33.97-84.94,87.88-84.94s87.88,32.76,87.88,84.94v29.47c0,52.18-33.97,84.94-87.88,84.94s-87.88-32.76-87.88-84.94ZM1058.47,280.15v25.65c0,29.47,15.77,48.01,41.25,48.01s41.25-18.55,41.25-48.01v-25.65c0-29.64-15.77-48.02-41.25-48.02s-41.25,18.37-41.25,48.02Z"/>
    <path class="cls-12" d="M1415.72,388.48h-40.21v-132.43c0-13.69-6.76-21.84-17.68-21.84s-18.72,9.01-18.72,23.05v131.22h-39.69v-132.43c0-13.69-6.41-21.84-17.68-21.84s-18.89,9.01-18.89,23.05v131.22h-40.21v-191.19h41.43v29.99h5.03c4.33-22.01,17.33-33.97,36.23-33.97,17.33,0,29.47,11.79,33.45,32.41h5.03c3.99-20.45,17.33-32.41,35.53-32.41,23.57,0,36.4,16.47,36.4,46.8v148.38Z"/>
    <path class="cls-12" d="M1624.77,334.75c-3.99,33.8-37.79,57.9-82.16,57.9-55.64,0-87.54-31.2-87.54-85.46v-30.68c0-50.1,34.67-83.2,86.67-83.2s83.03,33.28,83.03,84.59v26.35h-123.24v10.4c0,24.96,16.12,41.25,40.91,41.25,19.07,0,34.15-8.67,37.61-21.15h44.72ZM1501.53,273.91h77.48c0-27.39-14.21-43.86-38.13-43.86s-39.35,16.47-39.35,43.86Z"/>
    <path class="cls-12" d="M1726.87,363.69c0-16.99,13.69-30.16,31.2-30.16s31.2,13.17,31.2,30.16-13.69,30.16-31.2,30.16-31.2-13.17-31.2-30.16ZM1785.63,138.35l-4.68,172.3h-45.94l-4.33-172.3h54.95Z"/>
  </g>
  <g>
    <path class="cls-14" d="M1126.6,987.85c-.11.05-.22.11-.34.16-.25,0-.51,0-.76,0-108.57,0-217.14,0-325.71,0-.41,0-.81,0-1.22,0,0,0-.07,0-.07,0,.02-.26.04-.52.04-.79,0-28.8,0-57.59,0-86.39,108.69,0,217.38,0,326.08,0,.56,0,1.12-.01,1.68-.02,0,0,.01.03.01.03,0,.07-.01.14-.01.21,0,28.59,0,57.18,0,85.76,0,.35.02.69.31,1.02Z"/>
    <path class="cls-13" d="M1126.3,900.81c-.56,0-1.12.02-1.68.02-108.69,0-217.38,0-326.08,0,0-1.34.03-2.68-.01-4.01-.01-.43.29-.62,1.23-.58.35.02.71,0,1.07,0,107.71,0,215.43,0,323.14,0,.36,0,.72.02,1.07,0,1.04-.06,1.29.18,1.28.63-.05,1.31-.01,2.63-.01,3.94Z"/>
    <path class="cls-2" d="M798.57,988.01c.41,0,.81,0,1.22,0,108.57,0,217.14,0,325.71,0,.25,0,.51,0,.76,0,0,1.34-.03,2.68.05,4.01.03.49-.36.64-1.31.58-.25-.02-.51,0-.76,0-107.88,0-215.77,0-323.65,0q-2.06,0-2.05-1c0-1.19.02-2.39.03-3.58Z"/>
    <path class="cls-13" d="M798.54,900.83c0,28.8,0,57.59,0,86.39,0,.26-.03.52-.04.79-2.55,0-5.1,0-7.64,0q-2.09,0-2.09-.95c0-1.77,0-3.54,0-5.3,0-26.64,0-53.28,0-79.92q0-1,2.14-1c2.55,0,5.1,0,7.64,0Z"/>
    <path class="cls-2" d="M1126.6,987.85c-.29-.33-.31-.67-.31-1.02,0-28.59,0-57.18,0-85.76,0-.07,0-.14.01-.21,2.85,0,5.71,0,8.56-.02.88,0,1.37.07,1.22.54-.06.19,0,.38,0,.57,0,27.54,0,55.09-.01,82.63,0,1.12.18,2.24-.12,3.35-2.37.19-4.75.03-7.13.08-.77.02-1.51-.02-2.22-.16Z"/>
  </g>
  <g>
    <path class="cls-1" d="M132.93,543.55v-30.94h3.44v10.31h10.31v3.44h-10.31v13.75h10.31v3.44h-13.75ZM146.68,540.11v-13.75h3.44v13.75h-3.44Z"/>
    <path class="cls-1" d="M154.2,543.55v-20.63h3.44v3.44h3.44v3.44h-3.44v13.75h-3.44ZM161.07,526.36v-3.44h6.88v3.44h-6.88Z"/>
    <path class="cls-1" d="M172.03,540.11v-13.75h3.44v13.75h-3.44ZM175.47,526.36v-3.44h10.31v3.44h-10.31ZM175.47,543.55v-3.44h10.31v3.44h-10.31ZM185.78,540.11v-13.75h3.44v13.75h-3.44Z"/>
    <path class="cls-1" d="M193.3,540.11v-17.19h3.44v17.19h-3.44ZM196.74,543.55v-3.44h10.31v-17.19h3.44v20.63h-13.75Z"/>
    <path class="cls-1" d="M214.57,536.67v-10.31h3.44v10.31h-3.44ZM214.57,546.98v-3.44h13.75v3.44h-13.75ZM228.32,543.55v-3.44h-10.31v-3.44h10.31v-10.31h-10.31v-3.44h13.75v20.63h-3.44Z"/>
    <path class="cls-1" d="M235.84,543.55v-30.94h3.44v10.31h10.31v3.44h-10.31v17.19h-3.44ZM249.59,543.55v-17.19h3.44v17.19h-3.44Z"/>
    <path class="cls-1" d="M260.55,540.11v-13.75h-3.44v-3.44h3.44v-6.88h3.44v6.88h6.88v3.44h-6.88v13.75h-3.44ZM263.99,543.55v-3.44h6.88v3.44h-6.88Z"/>
    <path class="cls-1" d="M285.9,540.11v-13.75h-3.44v-3.44h3.44v-6.88h3.44v6.88h6.88v3.44h-6.88v13.75h-3.44ZM289.34,543.55v-3.44h6.88v3.44h-6.88Z"/>
    <path class="cls-1" d="M300.3,540.11v-13.75h3.44v13.75h-3.44ZM303.74,526.36v-3.44h10.31v3.44h-10.31ZM303.74,543.55v-3.44h10.31v3.44h-10.31ZM314.05,540.11v-13.75h3.44v13.75h-3.44Z"/>
    <path class="cls-1" d="M329.09,529.8v-6.88h3.44v6.88h-3.44ZM329.09,546.98v-3.44h6.88v3.44h-6.88ZM332.53,536.67v-6.88h3.44v6.88h-3.44ZM335.97,543.55v-6.88h3.44v6.88h-3.44ZM339.4,536.67v-6.88h3.44v6.88h-3.44ZM342.84,529.8v-6.88h3.44v6.88h-3.44Z"/>
    <path class="cls-1" d="M350.36,540.11v-13.75h3.44v13.75h-3.44ZM353.8,526.36v-3.44h10.31v3.44h-10.31ZM353.8,543.55v-3.44h10.31v3.44h-10.31ZM364.11,540.11v-13.75h3.44v13.75h-3.44Z"/>
    <path class="cls-1" d="M371.63,540.11v-17.19h3.44v17.19h-3.44ZM375.07,543.55v-3.44h10.31v-17.19h3.44v20.63h-13.75Z"/>
    <path class="cls-1" d="M400.42,543.55v-30.94h3.44v10.31h10.31v3.44h-10.31v13.75h10.31v3.44h-13.75ZM414.18,540.11v-13.75h3.44v13.75h-3.44Z"/>
    <path class="cls-1" d="M421.7,529.8v-6.88h3.44v6.88h-3.44ZM421.7,546.98v-3.44h6.88v3.44h-6.88ZM425.13,536.67v-6.88h3.44v6.88h-3.44ZM428.57,543.55v-6.88h3.44v6.88h-3.44ZM432.01,536.67v-6.88h3.44v6.88h-3.44ZM435.45,529.8v-6.88h3.44v6.88h-3.44Z"/>
    <path class="cls-1" d="M132.93,596.05v-30.94h3.44v13.75h3.44v3.44h-3.44v13.75h-3.44ZM139.8,578.86v-3.44h3.44v3.44h-3.44ZM139.8,585.73v-3.44h3.44v3.44h-3.44ZM143.24,575.42v-6.88h3.44v6.88h-3.44ZM143.24,592.61v-6.88h3.44v6.88h-3.44ZM146.68,568.54v-3.44h3.44v3.44h-3.44ZM146.68,596.05v-3.44h3.44v3.44h-3.44Z"/>
    <path class="cls-1" d="M154.2,592.61v-24.06h3.44v24.06h-3.44ZM157.63,568.54v-3.44h10.31v3.44h-10.31ZM157.63,596.05v-3.44h10.31v3.44h-10.31ZM167.95,592.61v-24.06h3.44v24.06h-3.44Z"/>
    <path class="cls-1" d="M175.47,596.05v-30.94h13.75v3.44h-10.31v10.31h10.31v10.31h-3.44v-6.88h-6.88v13.75h-3.44ZM189.22,578.86v-10.31h3.44v10.31h-3.44ZM189.22,596.05v-6.88h3.44v6.88h-3.44Z"/>
    <path class="cls-1" d="M204.26,592.61v-24.06h3.44v24.06h-3.44ZM207.7,568.54v-3.44h13.75v3.44h-13.75ZM207.7,596.05v-3.44h13.75v3.44h-13.75Z"/>
    <path class="cls-1" d="M225.53,592.61v-24.06h3.44v24.06h-3.44ZM228.97,568.54v-3.44h10.31v3.44h-10.31ZM228.97,596.05v-3.44h10.31v3.44h-10.31ZM239.28,592.61v-24.06h3.44v24.06h-3.44Z"/>
    <path class="cls-1" d="M246.8,596.05v-30.94h3.44v6.88h3.44v6.88h-3.44v17.19h-3.44ZM253.68,585.73v-6.88h3.44v6.88h-3.44ZM260.55,596.05v-17.19h-3.44v-6.88h3.44v-6.88h3.44v30.94h-3.44Z"/>
    <path class="cls-1" d="M268.07,596.05v-30.94h13.75v3.44h-10.31v10.31h10.31v3.44h-10.31v13.75h-3.44ZM281.82,578.86v-10.31h3.44v10.31h-3.44Z"/>
    <path class="cls-1" d="M289.34,592.61v-27.5h3.44v27.5h-3.44ZM292.78,596.05v-3.44h10.31v3.44h-10.31ZM303.09,592.61v-27.5h3.44v27.5h-3.44Z"/>
    <path class="cls-1" d="M317.49,596.05v-27.5h-6.88v-3.44h17.19v3.44h-6.88v27.5h-3.44Z"/>
    <path class="cls-1" d="M331.88,596.05v-30.94h13.75v3.44h-10.31v10.31h10.31v3.44h-10.31v10.31h10.31v3.44h-13.75Z"/>
    <path class="cls-1" d="M349.72,596.05v-30.94h13.75v3.44h-10.31v10.31h10.31v10.31h-3.44v-6.88h-6.88v13.75h-3.44ZM363.47,578.86v-10.31h3.44v10.31h-3.44ZM363.47,596.05v-6.88h3.44v6.88h-3.44Z"/>
    <path class="cls-1" d="M378.51,596.05v-30.94h13.75v3.44h-10.31v24.06h10.31v3.44h-13.75ZM392.26,592.61v-24.06h3.44v24.06h-3.44Z"/>
    <path class="cls-1" d="M399.78,596.05v-30.94h13.75v3.44h-10.31v10.31h10.31v3.44h-10.31v10.31h10.31v3.44h-13.75Z"/>
    <path class="cls-1" d="M417.61,596.05v-30.94h13.75v3.44h-10.31v10.31h10.31v3.44h-10.31v13.75h-3.44ZM431.36,578.86v-10.31h3.44v10.31h-3.44Z"/>
    <path class="cls-1" d="M438.88,596.05v-13.75h3.44v-10.31h3.44v10.31h3.44v-10.31h3.44v10.31h3.44v13.75h-3.44v-10.31h-10.31v10.31h-3.44ZM445.76,571.98v-6.88h3.44v6.88h-3.44Z"/>
    <path class="cls-1" d="M460.15,596.05v-30.94h13.75v3.44h-10.31v10.31h10.31v10.31h-3.44v-6.88h-6.88v13.75h-3.44ZM473.91,578.86v-10.31h3.44v10.31h-3.44ZM473.91,596.05v-6.88h3.44v6.88h-3.44Z"/>
    <path class="cls-1" d="M488.3,596.05v-27.5h-6.88v-3.44h17.19v3.44h-6.88v27.5h-3.44Z"/>
    <path class="cls-1" d="M502.7,596.05v-30.94h3.44v6.88h3.44v6.88h-3.44v17.19h-3.44ZM509.57,585.73v-6.88h3.44v6.88h-3.44ZM516.45,596.05v-17.19h-3.44v-6.88h3.44v-6.88h3.44v30.94h-3.44Z"/>
    <path class="cls-1" d="M523.97,596.05v-30.94h13.75v3.44h-10.31v10.31h10.31v3.44h-10.31v10.31h10.31v3.44h-13.75Z"/>
    <path class="cls-1" d="M541.8,596.05v-30.94h3.44v3.44h3.44v6.88h-3.44v20.63h-3.44ZM548.68,582.29v-6.88h3.44v6.88h-3.44ZM555.55,596.05v-6.88h-3.44v-6.88h3.44v-17.19h3.44v30.94h-3.44Z"/>
    <path class="cls-1" d="M569.95,596.05v-27.5h-6.88v-3.44h17.19v3.44h-6.88v27.5h-3.44Z"/>
  </g>
  <g>
    <path class="cls-1" d="M835.43,959.19v-27.09h3.87v27.09h-3.87ZM839.3,932.09v-3.87h15.48v3.87h-15.48ZM839.3,963.06v-3.87h15.48v3.87h-15.48Z"/>
    <path class="cls-1" d="M859.38,959.19v-30.96h3.87v30.96h-3.87ZM863.25,963.06v-3.87h3.87v3.87h-3.87Z"/>
    <path class="cls-1" d="M871.72,935.96v-3.87h3.87v3.87h-3.87ZM871.72,963.06v-23.22h3.87v23.22h-3.87Z"/>
    <path class="cls-1" d="M880.19,959.19v-15.48h3.87v15.48h-3.87ZM884.06,943.7v-3.87h15.48v3.87h-15.48ZM884.06,963.06v-3.87h15.48v3.87h-15.48Z"/>
    <path class="cls-1" d="M904.14,963.06v-34.84h3.87v19.35h3.87v3.87h-3.87v11.61h-3.87ZM911.88,947.57v-3.87h3.87v3.87h-3.87ZM911.88,955.31v-3.87h3.87v3.87h-3.87ZM915.75,943.7v-3.87h3.87v3.87h-3.87ZM915.75,963.06v-7.74h3.87v7.74h-3.87Z"/>
    <path class="cls-1" d="M936.56,959.19v-15.48h-3.87v-3.87h3.87v-7.74h3.87v7.74h7.74v3.87h-7.74v15.48h-3.87ZM940.43,963.06v-3.87h7.74v3.87h-7.74Z"/>
    <path class="cls-1" d="M952.76,959.19v-15.48h3.87v15.48h-3.87ZM956.63,943.7v-3.87h11.61v3.87h-11.61ZM956.63,963.06v-3.87h11.61v3.87h-11.61ZM968.25,959.19v-15.48h3.87v15.48h-3.87Z"/>
    <path class="cls-1" d="M985.18,943.7v-11.61h3.87v11.61h-3.87ZM985.18,963.06v-3.87h11.61v3.87h-11.61ZM989.05,932.09v-3.87h11.61v3.87h-11.61ZM989.05,947.57v-3.87h7.74v3.87h-7.74ZM996.79,959.19v-11.61h3.87v11.61h-3.87Z"/>
    <path class="cls-1" d="M1009.13,959.19v-15.48h-3.87v-3.87h3.87v-7.74h3.87v7.74h7.74v3.87h-7.74v15.48h-3.87ZM1013,963.06v-3.87h7.74v3.87h-7.74Z"/>
    <path class="cls-1" d="M1025.34,943.7v-3.87h15.48v3.87h-15.48ZM1025.34,959.19v-7.74h3.87v7.74h-3.87ZM1029.21,963.06v-3.87h11.61v-7.74h-11.61v-3.87h11.61v-3.87h3.87v19.35h-15.48Z"/>
    <path class="cls-1" d="M1049.29,963.06v-23.22h3.87v3.87h3.87v3.87h-3.87v15.48h-3.87ZM1057.03,943.7v-3.87h7.74v3.87h-7.74Z"/>
    <path class="cls-1" d="M1073.24,959.19v-15.48h-3.87v-3.87h3.87v-7.74h3.87v7.74h7.74v3.87h-7.74v15.48h-3.87ZM1077.11,963.06v-3.87h7.74v3.87h-7.74Z"/>
  </g>
  <g>
    <path class="cls-1" d="M749.73,598.76c0,5.57.11,11.15-.07,16.72-.07,2.18.63,2.75,2.66,2.53,1.57-.17,3.2.12,4.77-.07,1.97-.23,2.27.6,2.24,2.34-.04,2.35-1.08,5.57.43,6.82,1.43,1.19,4.53.4,6.9.43,3.09.03,6.18.17,9.25-.05,2.2-.15,2.74.65,2.52,2.66-.16,1.47.12,3-.07,4.47-.29,2.21.65,2.62,2.65,2.54,2.24-.09,5.33-1.04,6.53.42,1.14,1.38.48,4.35.38,6.61-.08,1.82.25,2.64,2.36,2.53,2.34-.11,5.46-1.09,6.83.43,1.16,1.28.54,4.35.35,6.6-.19,2.24.71,2.59,2.68,2.52,2.24-.08,5.23-1.03,6.54.44,1.11,1.23.5,4.16.34,6.31-.15,2.12.3,3.01,2.68,2.83,2.22-.17,5.22-1.04,6.53.43,1.1,1.24.5,4.16.33,6.32-.17,2.16.38,2.85,2.7,2.8,6.98-.15,6.92-.03,6.96,7.06.01,1.88-.37,2.57-2.4,2.49-2.34-.09-5.46-1.1-6.82.45-1.15,1.31-.53,4.37-.32,6.61.22,2.32-.83,2.47-2.72,2.46-17.32-.06-34.64,0-51.95-.09-2.15-.01-2.97.37-2.8,2.71.16,2.22,1.05,5.22-.44,6.53-1.25,1.1-4.16.36-6.33.37-13.64.03-27.27.04-40.91.05-.02,2.57-.12,5.15-.03,7.72.05,1.43-.39,1.88-1.82,1.82-2.57-.09-5.14,0-7.72.03-.01,15.23,0,30.46-.08,45.69,0,1.75.54,2.18,2.18,2.09,2.48-.14,4.97-.06,7.46-.07,0,0-.08.08-.08.08.01-3.98.04-7.96.04-11.95,0-7.58,0-7.54,7.74-7.25,1.39.05,1.91.35,1.85,1.82-.09,2.47-.9,5.78.34,7.21,1.45,1.67,4.84.51,7.39.52,1.44.01,1.87.42,1.82,1.85-.1,3.28-.05,6.57-.02,9.85.02,2.37-.79,5.44.38,6.93,1.25,1.59,4.46.32,6.81.52.1,0,.2.02.3,0,1.74-.3,2.13.5,2.1,2.14-.08,5.67-.01,11.35,0,17.02,0,0-.08-.08-.08-.08.59.01,1.18.03,1.78.04,2.47.02,5.69-.91,7.2.3,1.76,1.41.53,4.78.58,7.29.03,1.49.33,2.08,1.95,2,2.56-.13,5.13-.01,7.7,0-.01-3.88.04-7.76-.07-11.64-.07-2.45,1.11-5.69-.5-7.11-1.36-1.2-4.54-.46-6.9-.36-1.64.07-2.26-.35-2.18-2.1.14-3.08.11-6.17.02-9.25-.08-2.55,1.11-5.83-.52-7.41-1.25-1.21-4.52-.34-6.89-.39-.1,0-.2-.01-.3,0-1.4.22-1.91-.31-1.86-1.78.11-3.18.11-6.37,0-9.55-.08-2.55,1.11-5.83-.53-7.41-1.26-1.21-4.53-.45-6.89-.34-1.68.08-2.24-.42-2.15-2.13.12-2.37.86-5.52-.33-6.92-1.41-1.65-4.66-.49-7.1-.49-1.69,0-2.17-.47-2.13-2.16.11-4.87.14-9.75,0-14.62-.06-1.97.51-2.45,2.45-2.44,12.83.09,25.67.04,38.51.04,6.85,0,6.96,0,6.82-6.86-.04-2.24.52-2.77,2.76-2.75,15.62.11,31.24.08,46.86.03,2.54,0,5.83,1.11,7.41-.53,1.21-1.26.33-4.52.38-6.9,0-.1.01-.2,0-.3-.22-1.41.33-1.9,1.79-1.85,2.58.09,5.17-.03,7.75-.06.02-3.18.04-6.36.06-9.54-.01-5.47.12-10.95-.11-16.41-.1-2.38.74-2.7,2.83-2.68,9.45.11,18.9.06,28.35.04,2.27,0,5.22.73,6.62-.4,1.49-1.2.59-4.29.42-6.52-.18-2.38.73-2.7,2.83-2.68,12.24.1,24.47.06,36.71.04,2.67,0,6.27.92,7.76-.43,1.74-1.57.38-5.23.56-7.97.03-.4.03-.8.04-1.19-16.73.01-33.45,0-50.18.07-2.35,0-5.46-1.06-6.83.49-1.15,1.31-.48,4.36-.34,6.62.11,1.92-.43,2.5-2.42,2.47-7.86-.12-15.73-.14-23.59,0-2.22.04-2.78-.5-2.76-2.75.11-16.03.06-32.06.05-48.09,0-6.56,0-6.7-6.58-6.5-2.54.08-3.04-.65-3.03-3.09.1-25.39.06-50.78.05-76.16,0-2.17.73-5.08-.37-6.33-1.31-1.49-4.31-.6-6.53-.44-2.37.17-2.7-.7-2.69-2.82.08-22.2.05-44.4.04-66.61,0-2.27.73-5.23-.41-6.62-1.2-1.48-4.29-.52-6.53-.43-2,.08-2.68-.35-2.67-2.54.09-20.61.11-41.22-.02-61.83-.01-2.45.84-2.65,2.86-2.64,12.84.08,25.69.04,38.53.04,6.47,0,6.6,0,6.41-6.38-.08-2.56.5-3.25,3.18-3.25,34.85.11,69.69.08,104.54.06,2.26,0,5.25.7,6.59-.45,1.42-1.21.52-4.3.39-6.55-.12-2.1.5-2.62,2.6-2.61,17.42.09,34.85.09,52.27,0,2.11-.01,2.6.53,2.59,2.61-.09,16.03-.05,32.06-.05,48.09,0,6.69,0,6.81,6.75,6.64,2.42-.06,2.87.7,2.86,2.95-.08,22.4-.05,44.8-.05,67.2,0,6.37,0,6.55,6.48,6.3,2.78-.11,3.15.82,3.14,3.29-.1,22-.07,44.01-.03,66.01,0,2.35-1.04,5.46.47,6.84,1.28,1.16,4.34.48,6.6.37,1.85-.09,2.52.32,2.51,2.38-.09,17.52-.1,35.05,0,52.57.01,2.25-.78,2.51-2.71,2.49-9.56-.09-19.12-.04-28.67-.04-6.88,0-6.98,0-6.85,6.84.04,2.21-.48,2.79-2.74,2.77-12.64-.13-25.29-.07-37.93-.05-2.28,0-5.29-.79-6.64.36-1.59,1.35-.54,4.48-.47,6.81.05,1.99-.56,2.44-2.48,2.43-12.15-.09-24.29-.05-36.44-.04-2.87,0-6.62-.98-8.37.45-1.83,1.5-.37,5.4-.57,8.25-.02.3-.03.6-.04.89,13.63-.01,27.27-.03,40.9-.03,6.96,0,6.87,0,6.98,6.82.04,2.15-.37,3.03-2.71,2.79-2.15-.22-5.04-.81-6.35.27-1.56,1.29-.59,4.29-.48,6.51.1,2.2-.46,2.8-2.74,2.78-15.82-.12-31.65-.07-47.47-.06-2.28,0-5.28-.8-6.65.33-1.63,1.35-.53,4.47-.49,6.8.03,1.91-.45,2.49-2.44,2.47-9.35-.11-18.71-.09-28.06-.02-2.55.02-5.83-1.11-7.41.53-1.21,1.26-.45,4.53-.34,6.89.08,1.68-.42,2.18-2.13,2.15-5.67-.08-11.34.02-17.01.05,0,3.12,0,6.24,0,9.37,7.16.03,14.33.08,21.49.09,2.27,0,5.29.78,6.63-.36,1.59-1.35.54-4.48.47-6.81-.06-1.99.57-2.44,2.48-2.42,9.65.1,19.31.05,28.96.05,6.82,0,6.94,0,6.79-6.89-.05-2.29.6-2.74,2.78-2.73,15.92.1,31.85.05,47.77.05,6.82,0,6.94,0,6.8-6.89-.05-2.29.6-2.74,2.79-2.73,15.92.1,31.85.05,47.77.05,6.82,0,6.94,0,6.79-6.89-.05-2.29.61-2.74,2.79-2.72,15.92.1,31.85.05,47.77.05,6.82,0,6.94,0,6.79-6.89-.05-2.3.61-2.75,2.79-2.72,11.05.12,22.09.06,33.14.04,1.03,0,2.41.6,2.42-1.51,0-2.64-1.24-6.36.53-7.63,1.85-1.33,5.35-.36,8.12-.4.3,0,.6-.02.89-.04l-.08.08c-.1-3.15,1.34-7.23-.57-9.15-1.5-1.51-5.64-.4-8.61-.45-.6,0-1.19,0-1.79,0-2.58.03-5.91-.89-7.53.37-1.7,1.33-.6,4.83-.51,7.36.08,2.16-1.16,1.83-2.43,1.83-14.24,0-28.47.05-42.71-.06-2.18-.02-2.93.43-2.79,2.73.14,2.22,1.06,5.22-.45,6.53-1.27,1.1-4.16.35-6.34.35-12.84.01-25.68.05-38.53-.04-1.92-.01-2.53.44-2.47,2.42.07,2.34,1.11,5.46-.47,6.81-1.33,1.14-4.36.35-6.63.36-9.56.02-19.11-.05-28.67.05-1.94.02-2.51-.47-2.45-2.43.15-4.77.15-9.56,0-14.33-.06-1.95.49-2.45,2.44-2.44,17.42.08,34.84,0,52.26.1,2.23.01,2.95-.5,2.74-2.75-.2-2.15-.8-5.06.3-6.34,1.3-1.51,4.28-.47,6.53-.5,6.57-.07,13.14-.08,19.71.02,1.7.03,2.13-.47,2.12-2.14-.05-24.09-.05-48.18,0-72.27,0-1.7-.47-2.14-2.14-2.14-2.44,0-5.79,1.18-7.08-.49-1.21-1.57-.37-4.76-.37-7.24,0-22-.04-44,.05-66,0-2.26-.55-2.78-2.76-2.74-6.85.13-6.85.03-6.85-6.83,0-22.3-.04-44.6.06-66.9,0-2.26-.57-2.78-2.77-2.73-6.85.13-6.85.03-6.85-6.84,0-15.93-.05-31.86.06-47.78.02-2.28-.59-2.73-2.78-2.72-23.69.09-47.39.09-71.08,0-2.27,0-2.77.58-2.73,2.77.13,6.84.03,6.84-6.84,6.84-34.94,0-69.89.03-104.83-.07-2.52,0-3.1.62-3.03,3.08.18,6.54.06,6.55-6.54,6.55-16.03,0-32.06.05-48.08-.06-2.29-.02-2.76.6-2.72,2.78.13,6.84.03,6.84-6.85,6.84-3.38,0-6.77.04-10.15-.02-1.37-.02-2.15.08-2.12,1.86.05,2.53,1.17,5.94-.53,7.37-1.46,1.24-4.75.42-7.23.31-1.52-.06-1.76.53-1.79,1.88-.05,2.54,1.16,5.94-.55,7.37-1.47,1.23-4.76.41-7.23.3-1.54-.07-1.78.56-1.76,1.9.07,4.98-.04,9.96.06,14.93.04,1.7-.2,2.52-2.21,2.38-2.35-.17-5.56-.84-6.89.37-1.57,1.43-.41,4.67-.48,7.13-.09,3.18-.08,6.37,0,9.56.04,1.44-.21,2.08-1.91,2.07-2.53-.02-6.02-1.2-7.35.55-1.25,1.66-.33,4.97-.33,7.55,0,24.99.02,49.98-.05,74.96,0,2.19.35,3.04,2.83,2.98,6.78-.18,6.78-.05,6.78,6.6,0,25.49.03,50.97-.05,76.46,0,2.2.35,3.23,2.83,2.95,2.26-.25,4.57-.06,6.86-.07-.03-1.09-.09-2.18-.09-3.28,0-28.47,0-56.94,0-85.4,0-6.85,0-6.96-6.86-6.83-2.24.04-2.76-.53-2.75-2.76.1-19.01.05-38.02.06-57.03,0-2.28-.79-5.29.35-6.64,1.35-1.6,4.47-.33,6.81-.54.2-.02.4-.03.6,0,1.45.23,1.86-.39,1.82-1.82-.1-3.28-.05-6.57-.02-9.85.02-2.37-.79-5.44.39-6.93,1.25-1.58,4.46-.32,6.8-.52.2-.02.4-.03.6,0,1.49.24,1.83-.46,1.79-1.84-.09-3.48-.05-6.97-.02-10.45.02-2.17-.73-5.08.38-6.32,1.31-1.48,4.29-.34,6.54-.5.1,0,.2-.02.3,0,2.06.4,2.47-.62,2.38-2.46-.11-2.26-.79-5.32.37-6.6,1.37-1.52,4.49-.48,6.83-.45,1.73.02,2.59-.26,2.35-2.24-.19-1.57.1-3.2-.07-4.77-.22-2.03.35-2.75,2.53-2.66,4.57.19,9.16.18,13.73,0,2.25-.09,2.96.44,2.95,2.86-.11,19.11-.06,38.22-.06,57.33,0,6.75,0,6.85,6.68,6.71,2.27-.05,2.95.48,2.94,2.87-.1,22.2-.07,44.39-.05,66.59,0,2.26-.71,5.24.44,6.6,1.21,1.44,4.3.52,6.54.4,2.07-.11,2.64.46,2.62,2.58-.1,15.23-.06,30.46-.06,45.69,0,11.84.04,23.69-.04,35.53-.01,1.79.35,2.51,2.26,2.32,1.87-.19,3.78.03,5.67-.07,1.29-.07,1.7.33,1.69,1.66-.04,14.83-.04,29.66,0,44.49,0,1.29-.35,1.63-1.66,1.7-7.79.43-7.79.47-7.92-7.37,0-.1-.01-.2,0-.3.27-1.59-.43-1.98-1.96-1.98-2.45,0-5.8,1.12-7.12-.43-1.25-1.47-.53-4.72-.43-7.17.06-1.64-.54-1.94-2.03-1.95-2.45-.02-5.8,1.13-7.11-.44-1.24-1.49-.52-4.73-.41-7.18.08-1.7-.61-1.96-2.06-1.91-2.38.07-5.5.88-6.95-.29-1.71-1.39-.58-4.65-.52-7.08.05-2.01-.73-2.26-2.41-2.19-3.08.12-6.17.11-9.25,0-2.45-.08-5.7,1.11-7.12-.5-1.2-1.36-.35-4.53-.41-6.9,0-.1-.01-.2,0-.3.21-1.38-.27-1.93-1.77-1.87-2.47.09-5.77.91-7.22-.33-1.68-1.45-.51-4.84-.53-7.38-.02-1.42-.38-1.89-1.83-1.84-2.58.09-5.17-.03-7.76-.06Z"/>
    <path class="cls-1" d="M778.41,847.27c12.14.03,24.28.04,36.42.13,1.44.01,2.02-.41,1.79-1.83-.02-.1,0-.2,0-.3.22-2.44-1.12-5.79.55-7.08,1.57-1.21,4.76-.37,7.23-.37,9.36-.01,18.71-.07,28.07.04,1.97.02,2.55-.52,2.43-2.46-.14-2.26-.82-5.3.32-6.63,1.36-1.57,4.47-.49,6.82-.5,12.74-.06,25.48-.07,38.22.02,1.98.01,2.54-.53,2.42-2.46-.14-2.26-.82-5.3.33-6.62,1.36-1.57,4.47-.48,6.82-.5,9.56-.07,19.11-.09,28.67.02,1.99.02,2.53-.55,2.42-2.47-.14-2.26-.82-5.3.33-6.62,1.36-1.56,4.48-.48,6.82-.49,12.64-.06,25.28-.09,37.93.04,2.28.02,2.77-.59,2.73-2.78-.13-6.84-.03-6.84,6.84-6.84,6.47,0,12.94-.09,19.41.05,2.01.04,2.52-.58,2.41-2.48-.13-2.26-.81-5.31.34-6.62,1.36-1.55,4.48-.48,6.82-.49,12.64-.05,25.28-.1,37.93.04,2.3.02,2.75-.62,2.71-2.79-.12-6.83-.03-6.83,6.86-6.83,9.56,0,19.11-.09,28.67.06,2.32.04,2.89-.63,2.7-2.8-.2-2.27-.07-4.57-.08-6.86l.08.08c-15.96-.03-31.92-.05-47.87-.08.01,2.48-.12,4.97.09,7.43.17,1.99-.67,2.21-2.36,2.2-15.17-.07-30.34-.06-45.51-.08.01,2.47-.12,4.96.08,7.42.16,1.96-.61,2.24-2.34,2.22-8.81-.1-17.62-.06-26.42-.08.01,2.48-.12,4.97.09,7.43.17,1.99-.67,2.21-2.36,2.2-15.17-.07-30.34-.06-45.51-.08.01,2.48-.12,4.97.08,7.43.16,1.98-.64,2.22-2.35,2.21-11.99-.08-23.98-.06-35.97-.08.01,2.48-.12,4.97.09,7.43.17,1.99-.67,2.21-2.36,2.2-15.17-.07-30.34-.06-45.51-.08.01,2.48-.12,4.97.08,7.43.16,1.98-.64,2.22-2.35,2.21-11.99-.08-23.98-.06-35.97-.08.01,2.47-.11,4.95.08,7.41.16,1.93-.57,2.24-2.32,2.23-8.79-.06-17.59.03-26.38.06,0,3.12,0,6.24,0,9.36Z"/>
    <path class="cls-1" d="M1103.33,770.86c15.21.01,30.42-.01,45.63.09,1.92.01,2.29-.57,2.25-2.33-.06-2.35-1.07-5.56.41-6.82,1.41-1.19,4.52-.44,6.88-.44,9.54-.02,19.09-.06,28.63.04,1.82.02,2.41-.4,2.3-2.28-.14-2.35-.81-5.58.41-6.85,1.45-1.52,4.68-.43,7.13-.45,6.36-.06,12.73-.06,19.09,0,1.46.02,2.05-.26,2.04-1.92-.08-11.53-.07-23.07-.01-34.6,0-1.51-.51-1.83-1.88-1.77-2.58.11-5.17.06-7.75.07l.08-.08c-.01,2.39-.15,4.79,0,7.16.12,1.89-.38,2.51-2.4,2.49-9.55-.12-19.11-.09-28.67-.02-2.35.02-5.46-1.07-6.82.5-1.15,1.32-.48,4.36-.34,6.62.12,1.93-.45,2.49-2.43,2.46-9.56-.11-19.11-.06-28.67-.04-2.28,0-5.29-.79-6.64.35-1.6,1.35-.53,4.48-.48,6.81.05,1.97-.53,2.46-2.47,2.44-9.56-.1-19.11-.06-28.67-.04-2.27,0-5.3-.78-6.63.36-1.58,1.36-.54,4.48-.47,6.82.06,2.01-.59,2.44-2.49,2.42-9.06-.1-18.12-.06-27.18-.04-2.77,0-6.5-.97-8.06.43-1.81,1.62-.37,5.42-.57,8.26-.02.3-.03.6-.04.89,15.96,0,31.91,0,47.87,0-.01-2.48.12-4.97-.08-7.43-.16-1.98.64-2.22,2.35-2.21,11.99.08,23.97.06,35.96.08-.01-2.48.12-4.97-.08-7.43-.16-1.98.64-2.22,2.35-2.21,11.99.08,23.97.06,35.96.08-.01-2.18.14-4.38-.08-6.54-.24-2.37.36-3.22,2.96-3.13,6.14.23,12.3.07,18.45.07,7.42,0,7.35,0,7.35,7.3,0,1.81-.41,2.33-2.28,2.3-8.83-.12-17.66-.07-26.49-.09.01,2.48-.12,4.97.09,7.43.17,1.98-.65,2.22-2.36,2.21-11.99-.08-23.98-.06-35.97-.07.01,2.48-.12,4.97.09,7.43.17,1.98-.65,2.22-2.36,2.21-11.99-.08-23.98-.06-35.97-.07.03,3.21.06,6.42.08,9.64l-.08-.08Z"/>
    <path class="cls-1" d="M749.76,818.65c-.02,5.67.07,11.34-.1,17-.06,2.01.71,2.27,2.39,2.18,2.38-.12,4.77-.01,7.16,0,3.14-.01,6.29-.03,9.43-.04,0,0,.25-.02.25-.02,0-3.19-.01-6.37-.02-9.56-2.66.01-5.31-.04-7.96.06-1.3.05-1.71-.37-1.66-1.66.1-2.65.05-5.31.06-7.96-3.21.03-6.42.05-9.64.08l.08-.08Z"/>
    <path class="cls-1" d="M711.52,761.3c-.02,5.73.01,11.46-.08,17.19-.02,1.49.3,2.1,1.93,2,2.56-.15,5.14-.06,7.7-.08l-.08.08c.01-5.73-.02-11.46.07-17.18.02-1.48-.3-2.11-1.93-2.01-2.56.15-5.13.06-7.7.08l.08-.08Z"/>
    <path class="cls-1" d="M730.64,789.98c-.02,5.73.01,11.46-.08,17.19-.02,1.49.31,2.1,1.93,2,2.56-.15,5.13-.06,7.7-.08,0,0-.08.08-.08.08,0-6.4,0-12.8,0-19.2l.08.08c-3.21,0-6.43,0-9.64,0l.08-.08Z"/>
    <path class="cls-1" d="M1208.48,713.6c.01-2.66-.04-5.32.06-7.97.05-1.29-.35-1.71-1.65-1.66-2.65.1-5.31.05-7.97.07,0,0,.08-.08.08-.08-.01,2.66.04,5.31-.07,7.97-.05,1.3.36,1.71,1.66,1.66,2.65-.1,5.31-.05,7.97-.07l-.08.08Z"/>
    <path class="cls-1" d="M1198.92,704.04c.01-2.66-.04-5.32.07-7.97.05-1.3-.35-1.71-1.66-1.66-2.65.1-5.31.05-7.97.07l.08-.08c-.01,2.66.04,5.31-.07,7.97-.05,1.3.36,1.71,1.66,1.66,2.65-.1,5.31-.05,7.97-.07l-.08.08Z"/>
    <path class="cls-1" d="M1189.36,694.48c.01-2.66-.04-5.32.07-7.97.05-1.3-.35-1.71-1.66-1.66-2.65.1-5.31.05-7.97.07l.08-.08c-.01,2.66.04,5.31-.07,7.97-.05,1.3.36,1.71,1.66,1.66,2.65-.1,5.31-.05,7.97-.07l-.08.08Z"/>
    <path class="cls-1" d="M1179.8,684.92c.01-2.66-.04-5.32.07-7.97.05-1.3-.35-1.71-1.66-1.66-2.65.1-5.31.05-7.97.07l.08-.08c-.01,2.66.04,5.31-.07,7.97-.05,1.3.36,1.71,1.66,1.66,2.65-.1,5.31-.05,7.97-.07l-.08.08Z"/>
    <path class="cls-1" d="M1170.24,675.36c.01-2.66-.04-5.32.07-7.97.05-1.3-.35-1.71-1.66-1.66-2.65.1-5.31.05-7.97.07l.08-.08c-.01,2.66.04,5.31-.07,7.97-.05,1.3.36,1.71,1.66,1.66,2.65-.1,5.31-.05,7.97-.07l-.08.08Z"/>
    <path class="cls-1" d="M1160.68,665.8c.01-2.66-.04-5.32.07-7.97.05-1.3-.35-1.71-1.66-1.66-2.65.1-5.31.05-7.97.07,0,0,.08-.08.08-.08-.01,2.66.04,5.31-.07,7.97-.05,1.3.36,1.71,1.66,1.66,2.65-.1,5.31-.05,7.97-.07l-.08.08Z"/>
    <path class="cls-1" d="M1151.12,656.24c.01-2.66-.04-5.32.07-7.97.05-1.3-.35-1.71-1.66-1.66-2.65.1-5.31.05-7.97.07,0,0,.08-.08.08-.08-.01,2.66.04,5.31-.07,7.97-.05,1.3.36,1.71,1.66,1.66,2.65-.1,5.31-.05,7.97-.07l-.08.08Z"/>
    <path class="cls-1" d="M1141.57,646.69c.01-2.66-.04-5.32.07-7.97.05-1.3-.36-1.71-1.66-1.66-2.65.1-5.31.05-7.97.07l.08-.08c-.01,2.66.04,5.31-.07,7.97-.05,1.3.36,1.71,1.66,1.66,2.65-.1,5.31-.05,7.97-.07,0,0-.08.08-.08.08Z"/>
    <path class="cls-1" d="M721.08,780.42c-.01,2.66.04,5.32-.07,7.97-.05,1.3.36,1.71,1.66,1.66,2.65-.1,5.31-.05,7.97-.07,0,0-.08.08-.08.08.01-2.66-.04-5.31.07-7.97.05-1.3-.36-1.71-1.66-1.66-2.65.1-5.31.05-7.97.07,0,0,.08-.08.08-.08Z"/>
    <path class="cls-1" d="M740.2,809.09c-.01,2.66.04,5.32-.07,7.97-.05,1.3.36,1.71,1.66,1.66,2.65-.1,5.31-.05,7.97-.07l-.08.08c.01-2.66-.04-5.31.07-7.97.05-1.3-.36-1.71-1.66-1.66-2.65.1-5.31.05-7.97.07,0,0,.08-.08.08-.08Z"/>
    <path class="cls-5" d="M778.41,847.27c0-3.12,0-6.24,0-9.36-3.17-.04-6.35-.09-9.52-.13,0,0-.25.02-.25.02.06,3.16.13,6.31.19,9.47,3.2,0,6.39,0,9.59,0Z"/>
    <path class="cls-7" d="M768.82,847.26c-.06-3.16-.12-6.31-.19-9.47-3.14.01-6.29.03-9.43.04.02,2.58.13,5.16.04,7.74-.05,1.45.42,1.89,1.84,1.81,2.57-.13,5.16-.1,7.74-.13Z"/>
    <path class="cls-11" d="M1141.58,654.57c-.05,1.3.36,1.71,1.66,1.66,2.65-.1,5.31-.05,7.97-.07-.01,2.66.04,5.31-.07,7.97-.05,1.3.36,1.71,1.66,1.66,2.65-.1,5.31-.05,7.97-.07-.01,2.66.04,5.31-.07,7.97-.05,1.3.36,1.71,1.66,1.66,2.65-.1,5.31-.05,7.97-.07-.01,2.66.04,5.31-.07,7.97-.05,1.3.36,1.71,1.66,1.66,2.65-.1,5.31-.05,7.97-.07-.01,2.66.04,5.31-.07,7.97-.05,1.3.36,1.71,1.66,1.66,2.65-.1,5.31-.05,7.97-.07-.01,2.66.04,5.31-.07,7.97-.05,1.3.36,1.71,1.66,1.66,2.65-.1,5.31-.05,7.97-.07-.01,2.66.04,5.31-.07,7.97-.05,1.3.36,1.71,1.66,1.66,2.65-.1,5.31-.05,7.97-.07-.01,2.39-.15,4.79,0,7.16.12,1.89-.38,2.51-2.4,2.49-9.55-.12-19.11-.09-28.67-.02-2.35.02-5.46-1.07-6.82.5-1.15,1.32-.48,4.36-.34,6.62.12,1.93-.45,2.49-2.43,2.46-9.56-.11-19.11-.06-28.67-.04-2.28,0-5.29-.79-6.64.35-1.6,1.35-.53,4.48-.48,6.81.05,1.97-.53,2.46-2.47,2.44-9.56-.1-19.11-.06-28.67-.04-2.27,0-5.3-.78-6.63.36-1.58,1.36-.54,4.48-.47,6.82.06,2.01-.59,2.44-2.49,2.42-9.06-.1-18.12-.06-27.18-.04-2.77,0-6.5-.97-8.06.43-1.81,1.62-.37,5.42-.57,8.26-.02.3-.03.6-.04.89,0,0,.08-.08.08-.08-14.77.01-29.55.14-44.32-.05-3.16-.04-3.87.92-3.55,3.75.22,1.96.02,3.96,0,5.94l.08-.08c-11.94.01-23.88.06-35.83,0-1.86-.01-2.84.35-2.45,2.39.02.1,0,.2,0,.3q-.04,6.91-6.84,6.91c-12.84,0-25.68.04-38.51-.04-1.87-.01-2.58.36-2.5,2.4.08,2.33,1.12,5.55-.45,6.8-1.48,1.18-4.55.39-6.92.39-9.45.02-18.91.06-28.36-.04-1.89-.02-2.56.39-2.49,2.41.08,2.33,1.13,5.55-.46,6.8-1.49,1.17-4.56.38-6.93.38-12.64.01-25.28.05-37.92-.04-1.9-.01-2.55.41-2.49,2.42.07,2.33,1.11,5.46-.47,6.81-1.33,1.14-4.35.36-6.63.37-9.55.02-19.11.06-28.66-.04-1.92-.02-2.53.45-2.48,2.43.06,2.33,1.12,5.46-.47,6.81-1.34,1.14-4.36.33-6.63.36-3.98.05-7.96.07-11.93.11-3.2-.05-6.4-.09-9.61-.14l.07.07c-.01-5.73-.07-11.45,0-17.18.02-1.48-.3-2.1-1.93-2.01-2.56.13-5.13.01-7.7,0l.08.08c-.01-3.88.04-7.76-.07-11.64-.07-2.45,1.11-5.69-.5-7.11-1.36-1.2-4.54-.46-6.9-.36-1.64.07-2.26-.35-2.18-2.1.14-3.08.11-6.17.02-9.25-.08-2.55,1.11-5.83-.52-7.41-1.25-1.21-4.52-.34-6.89-.39-.1,0-.2-.01-.3,0-1.4.22-1.91-.31-1.86-1.78.11-3.18.11-6.37,0-9.55-.08-2.55,1.11-5.83-.53-7.41-1.26-1.21-4.53-.45-6.89-.34-1.68.08-2.24-.42-2.15-2.13.12-2.37.86-5.52-.33-6.92-1.41-1.65-4.66-.49-7.1-.49-1.69,0-2.17-.47-2.13-2.16.11-4.87.14-9.75,0-14.62-.06-1.97.51-2.45,2.45-2.44,12.83.09,25.67.04,38.51.04,6.85,0,6.96,0,6.82-6.86-.04-2.24.52-2.77,2.76-2.75,15.62.11,31.24.08,46.86.03,2.54,0,5.83,1.11,7.41-.53,1.21-1.26.33-4.52.38-6.9,0-.1.01-.2,0-.3-.22-1.41.33-1.9,1.79-1.85,2.58.09,5.17-.03,7.75-.06,3.2,0,6.4,0,9.6,0,7.16.03,14.33.08,21.49.09,2.27,0,5.29.78,6.63-.36,1.59-1.35.54-4.48.47-6.81-.06-1.99.57-2.44,2.48-2.42,9.65.1,19.31.05,28.96.05,6.82,0,6.94,0,6.79-6.89-.05-2.29.6-2.74,2.78-2.73,15.92.1,31.85.05,47.77.05,6.82,0,6.94,0,6.8-6.89-.05-2.29.6-2.74,2.79-2.73,15.92.1,31.85.05,47.77.05,6.82,0,6.94,0,6.79-6.89-.05-2.29.61-2.74,2.79-2.72,15.92.1,31.85.05,47.77.05,6.82,0,6.94,0,6.79-6.89-.05-2.3.61-2.75,2.79-2.72,11.05.12,22.09.06,33.14.04,1.03,0,2.41.6,2.42-1.51,0-2.64-1.24-6.36.53-7.63,1.85-1.33,5.35-.36,8.12-.4.3,0,.6-.02.89-.04-.01,2.66.04,5.31-.07,7.97-.05,1.3.36,1.71,1.66,1.66,2.65-.1,5.31-.05,7.97-.07-.01,2.66.04,5.31-.07,7.97ZM826.15,725.23c-.09-1.73.54-2.17,2.2-2.16,7.96.08,15.92-.03,23.87.08,2.03.03,2.71-.44,2.69-2.6-.06-7.01.04-7.01-6.88-7.01-9.65,0-19.3.05-28.94-.04-1.92-.02-2.6.48-2.51,2.47.1,2.25.99,5.16-.38,6.62-1.39,1.5-4.33.55-6.57.45-2.16-.1-2.63.65-2.61,2.69.05,6.93-.03,6.93,6.96,6.93,4.08,0,8.16-.01,12.23-.02,0,2.59-.09,5.17,0,7.76.05,1.46-.5,2-1.9,1.82-.2-.02-.4,0-.6,0-7.5.13-7.47.13-7.12,7.64.06,1.33.29,2.13,1.81,1.92.2-.03.4,0,.6,0,2.27.07,5.26-.72,6.63.43,1.63,1.37.45,4.47.53,6.82.11,3.28.1,6.57,0,9.85-.04,1.53.4,2.06,2,2.07,2.45.02,5.58-1.12,7.16.49,1.43,1.46.43,4.55.38,6.91-.04,1.73.56,2.16,2.22,2.15,11.34-.06,22.68-.06,34.02,0,1.5,0,2.11-.34,2.08-1.97-.1-5.07-.1-10.15,0-15.22.03-1.63-.57-2.16-2.07-1.95-.1.01-.2,0-.3,0-2.34-.23-5.53,1.1-6.8-.57-1.17-1.53-.39-4.57-.42-6.94-.03-2.98-.13-5.97.03-8.95.11-2.01-.38-2.93-2.58-2.69-1.67.18-3.39-.06-5.07.06-1.63.12-2.16-.56-1.96-2.06.03-.2,0-.4,0-.6q-.08-6.92-6.91-6.92c-7.26,0-14.52.01-21.78.02,0-2.49.12-4.98-.01-7.46ZM998.25,686.96c.06-1.44-.24-2.13-1.93-2.12-14.63.06-29.26.06-43.89,0-1.57,0-1.98.47-2.04,2.02-.26,7.57-.31,7.57,7.22,7.56,13.53-.01,27.07-.03,40.6-.05,0,2.39-.11,4.79.04,7.17.13,2.04-.71,2.49-2.59,2.48-10.85-.07-21.71.04-32.56-.09-2.46-.03-3.23.61-3.18,3.13.14,6.48.02,6.48-6.52,6.48-6.57,0-13.14.05-19.71-.03-1.79-.02-2.65.49-2.38,2.35.01.1,0,.2,0,.3q-.13,6.94-7.02,6.94c-12.64,0-25.29.05-37.93-.04-2.19-.02-2.91.54-2.88,2.82.07,6.66-.04,6.74-6.83,6.73-2.04,0-2.74.52-2.74,2.66,0,6.87-.08,6.96,6.76,6.9,2.16-.02,2.99.47,2.9,2.8-.18,4.67.02,9.36-.09,14.04-.04,1.86.6,2.4,2.41,2.38,2.26-.03,5.11-.99,6.64.43,1.56,1.46.53,4.35.5,6.59-.03,1.97.62,2.54,2.56,2.53,11.05-.08,22.1-.09,33.15,0,2.2.02,2.61-.8,2.61-2.78,0-6.83.06-6.83,6.79-6.83,18.92,0,37.83-.04,56.75.05,2.5.01,3.49-.44,3.4-3.22-.2-6.38-.04-6.39,6.3-6.39,12.74,0,25.49-.06,38.23.05,2.36.02,3.31-.43,3.25-3.06-.15-6.55-.01-6.55,6.45-6.55,6.47,0,12.94-.06,19.41.04,1.96.03,2.8-.37,2.8-2.59,0-7.01.11-7.01,7.2-7.01,3.29,0,6.61.33,9.85-.08,4.06-.52,1.42-3.91,1.9-5.92.3-1.23,1.17-3.56-1.89-3.6-2.44-.03-5.68,1.17-7.09-.62-1.19-1.49-.48-4.57-.43-6.94.03-1.67-.75-2.02-2.19-1.96-1.79.07-3.59-.06-5.37.04-1.59.09-2.03-.6-2.06-2.1-.05-2.36,1.04-5.35-.46-6.92-1.53-1.6-4.54-.48-6.89-.51-1.71-.02-2.38-.61-2.18-2.27.04-.29,0-.6,0-.9q-.04-6.44-6.62-6.44c-20.11,0-40.22,0-60.34,0,.02-2.49-.02-4.98.07-7.46ZM759.22,767.8c-.38,2.81.82,3.22,3.29,3.16,6.32-.16,6.32-.05,6.32,6.22,0,3.58.04,7.16-.02,10.74-.03,1.39.13,2.15,1.87,2.15,2.53,0,5.92-1.2,7.36.57,1.23,1.51.38,4.76.33,7.24-.03,1.28.36,1.73,1.68,1.72,5.27-.07,10.54-.07,15.81,0,1.34.02,1.8-.47,1.65-1.73-.05-.39,0-.79,0-1.19q.02-6.66,6.83-6.66c3.48,0,6.96-.05,10.44.04,1.39.03,1.82-.37,1.89-1.82.37-7.66.41-7.74-7.24-7.73-2.03,0-2.46-.64-2.42-2.52.12-4.87,0-9.75.07-14.62.02-1.49-.31-2.09-1.95-2.07-2.45.02-5.65,1.11-7.17-.42-1.52-1.53-.44-4.72-.42-7.17.02-1.65-.6-1.93-2.08-1.96-2.45-.05-5.69,1.14-7.11-.5-1.2-1.39-.48-4.54-.38-6.91.07-1.72-.53-2.12-2.18-2.15-7.35-.12-7.44-.17-7.37,7.01.02,2.06-.47,2.72-2.6,2.64-4.77-.17-9.55.04-14.32-.1-1.9-.06-2.39.54-2.28,2.35.15,2.48.04,4.97.04,7.46,0,2.09.22,4.21-.05,6.26ZM1177.8,713.58c1.51.03,2.02-.38,2.08-1.98.27-7.47.33-7.54-7.17-7.55-1.96,0-2.56-.55-2.49-2.5.09-2.25.99-5.16-.39-6.61-1.4-1.47-4.34-.54-6.57-.44-2.18.1-2.61-.69-2.59-2.7.05-6.84-.03-6.92-6.86-6.87-2.01.02-2.72-.41-2.7-2.59.05-7.02-.04-7.02-7.05-7.02-6.46,0-12.93.05-19.39-.03-1.64-.02-2.19.4-2.23,2.14-.17,7.37-.23,7.45,7.02,7.4,2.1-.01,2.66.57,2.64,2.65-.06,6.89.03,7.01,6.81,6.9,2.33-.04,2.77.7,2.74,2.85-.09,6.72,0,6.81,6.71,6.72,2.14-.03,2.9.41,2.86,2.74-.11,6.87,0,6.87,6.89,6.87,2.49,0,4.97,0,7.46,0,4.08,0,8.15-.06,12.23.03ZM1086.65,684.85c-1.68-.04-2.43.24-2.45,2.23-.08,7.24-.17,7.31,7.14,7.32,1.9,0,2.56.45,2.54,2.46-.02,2.33-1.18,5.44.55,6.79,1.44,1.12,4.4.45,6.67.31,1.91-.12,2.32.59,2.32,2.37,0,2.34-1.13,5.45.52,6.82,1.38,1.14,4.37.47,6.64.38,1.76-.07,2.45.35,2.41,2.28-.06,2.34-1.1,5.41.45,6.87,1.52,1.43,4.55.37,6.92.42,3.28.07,6.57-.04,9.85.04,1.44.04,1.88-.47,1.86-1.88-.07-5.08-.07-10.15,0-15.23.02-1.52-.38-2.28-1.99-2.03-.19.03-.4.02-.6,0-2.25-.18-5.19.99-6.57-.51-1.35-1.47-.48-4.37-.37-6.63.09-2.02-.62-2.52-2.53-2.46-2.25.07-5.17,1.01-6.61-.41-1.44-1.42-.48-4.35-.43-6.6.05-1.88-.4-2.63-2.44-2.54-3.97.16-7.96.05-11.94.05-3.98,0-7.96.07-11.94-.03ZM919.07,713.59c1.94.03,2.89-.28,2.76-2.53-.13-2.24-1.02-5.17.41-6.6,1.43-1.43,4.35-.48,6.6-.42,1.9.05,2.53-.45,2.53-2.46,0-7.13.09-7.13-7.06-7.14-3.28,0-6.57.11-9.85-.05-1.93-.1-2.29.63-2.3,2.39-.01,2.34,1.15,5.53-.52,6.8-1.54,1.16-4.57.4-6.95.41-9.36.02-18.71.07-28.07-.03-2.04-.02-2.71.45-2.69,2.6.06,6.98-.04,6.98,6.92,6.98,5.67,0,11.35,0,17.02,0h0c7.07.01,14.13-.05,21.2.05ZM1053.17,684.92c2.01.05,2.46-.62,2.46-2.52,0-7.09.07-7.09-7.09-7.09-9.54,0-19.09.07-28.63-.05-2.14-.03-2.63.63-2.61,2.67.05,6.94-.03,6.94,6.94,6.94,4.18,0,8.35,0,12.53,0,5.47,0,10.94-.09,16.4.05ZM761.28,723.08c-1.52-.07-2.15.34-2.04,1.97.14,1.98-.04,3.97.06,5.96.06,1.32-.42,1.74-1.71,1.68-1.88-.09-3.79.12-5.66-.06-1.95-.19-2.25.62-2.26,2.36-.04,7.24-.1,7.24,7.17,7.24,3.38,0,6.76-.06,10.13.03,1.39.03,1.88-.35,1.9-1.81.03-2.54-1.16-5.92.55-7.37,1.46-1.24,4.73-.44,7.2-.37,1.5.05,1.75-.56,1.8-1.91.32-7.69.36-7.69-7.31-7.69-.79,0-1.59,0-2.38,0-2.48,0-4.97.08-7.45-.03ZM1092.1,675.32c1.29.04,1.86-.42,1.7-1.71-.01-.1,0-.2,0-.3q.35-7.54-7.16-7.54c-3.37,0-6.75.05-10.12-.04-1.44-.04-1.79.49-1.86,1.88-.4,7.71-.44,7.71,7.32,7.71.79,0,1.59,0,2.38,0v-.02c2.58,0,5.16-.05,7.74.02ZM1125.13,665.76c7.68,0,7.87-.26,6.95-8.1-.14-1.2-.58-1.48-1.66-1.47-5.26.03-10.53.04-15.79,0-1.28-.01-1.64.42-1.74,1.7-.58,7.88-.62,7.88,7.17,7.88h2.68c.79,0,1.59,0,2.38,0Z"/>
    <path class="cls-11" d="M921.8,646.6c-16.73.01-33.45,0-50.18.07-2.35,0-5.46-1.06-6.83.49-1.15,1.31-.48,4.36-.34,6.62.11,1.92-.43,2.5-2.42,2.47-7.86-.12-15.73-.14-23.59,0-2.22.04-2.78-.5-2.76-2.75.11-16.03.06-32.06.05-48.09,0-6.56,0-6.7-6.58-6.5-2.54.08-3.04-.65-3.03-3.09.1-25.39.06-50.78.05-76.16,0-2.17.73-5.08-.37-6.33-1.31-1.49-4.31-.6-6.53-.44-2.37.17-2.7-.7-2.69-2.82.08-22.2.05-44.4.04-66.61,0-2.27.73-5.23-.41-6.62-1.2-1.48-4.29-.52-6.53-.43-2,.08-2.68-.35-2.67-2.54.09-20.61.11-41.22-.02-61.83-.01-2.45.84-2.65,2.86-2.64,12.84.08,25.69.04,38.53.04,6.47,0,6.6,0,6.41-6.38-.08-2.56.5-3.25,3.18-3.25,34.85.11,69.69.08,104.54.06,2.26,0,5.25.7,6.59-.45,1.42-1.21.52-4.3.39-6.55-.12-2.1.5-2.62,2.6-2.61,17.42.09,34.85.09,52.27,0,2.11-.01,2.6.53,2.59,2.61-.09,16.03-.05,32.06-.05,48.09,0,6.69,0,6.81,6.75,6.64,2.42-.06,2.87.7,2.86,2.95-.08,22.4-.05,44.8-.05,67.2,0,6.37,0,6.55,6.48,6.3,2.78-.11,3.15.82,3.14,3.29-.1,22-.07,44.01-.03,66.01,0,2.35-1.04,5.46.47,6.84,1.28,1.16,4.34.48,6.6.37,1.85-.09,2.52.32,2.51,2.38-.09,17.52-.1,35.05,0,52.57.01,2.25-.78,2.51-2.71,2.49-9.56-.09-19.12-.04-28.67-.04-6.88,0-6.98,0-6.85,6.84.04,2.21-.48,2.79-2.74,2.77-12.64-.13-25.29-.07-37.93-.05-2.28,0-5.29-.79-6.64.36-1.59,1.35-.54,4.48-.47,6.81.05,1.99-.56,2.44-2.48,2.43-12.15-.09-24.29-.05-36.44-.04-2.87,0-6.62-.98-8.37.45-1.83,1.5-.37,5.4-.57,8.25-.02.3-.03.6-.04.89,0,0,.08-.08.08-.08ZM1026.28,513.3c-1.7-1.56-5.84-.47-8.9-.55-.01-21.18-.03-42.37-.05-63.55,0-1.09-.06-2.18-.09-3.27,0-3.19,0-6.38,0-9.57.03-5.77.02-11.54.13-17.31.03-1.43-.39-2.03-1.83-1.81-.19.03-.4.02-.6,0-2.34-.21-5.46,1.06-6.81-.54-1.14-1.35-.34-4.36-.35-6.64-.05-7.16-.07-14.32-.1-21.49.03-2.65,0-5.29.12-7.93.06-1.29-.37-1.71-1.66-1.66-2.64.11-5.29.09-7.93.12-19.11,0-38.22,0-57.33,0-5.76-.03-11.52-.02-17.28-.11-1.39-.02-1.92.32-1.87,1.8.09,2.58-.02,5.16-.05,7.74-24.47.01-48.94.07-73.42-.03-2.5,0-3.12.61-3.05,3.07.18,6.53.05,6.67-6.53,6.48-2.55-.08-3.05.66-3.03,3.09.16,14.92.13,29.84.17,44.76,0,3.19,0,6.39-.01,9.58-.04,3.13-1.42,7.31.5,9.08,1.68,1.55,5.83.44,8.88.5.06,3.18.12,6.36.18,9.53,0,15.92,0,31.85,0,47.77-.01,3.14-1.42,7.31.52,9.09,1.7,1.56,5.84.47,8.9.54.04,3.16.09,6.32.13,9.48,0,6.38,0,12.75,0,19.13-.03,15.32-.05,30.65-.13,45.97,0,1.41.36,2.05,1.81,1.82.19-.03.4-.02.6,0,2.34.21,5.46-1.06,6.81.53,1.14,1.34.34,4.36.36,6.63.02,3.38.07,6.77-.03,10.15-.04,1.44.4,1.86,1.83,1.83,5.77-.11,11.54-.1,17.31-.13,3.19,0,6.38,0,9.57,0,.4.03.79.1,1.19.09,2.67-.04,6.05.88,7.82-.41,1.67-1.22.59-4.82.48-7.35-.09-2.23,1.26-1.78,2.47-1.78,11.94-.04,23.88-.07,35.82-.1,3.19,0,6.38,0,9.57,0,.4.03.79.1,1.19.09,2.67-.04,6.05.88,7.82-.41,1.67-1.22.59-4.82.49-7.35-.09-2.23,1.26-1.78,2.47-1.78,11.94-.04,23.88-.07,35.81-.1,3.19,0,6.39,0,9.58,0,.4.03.79.1,1.19.09,2.67-.04,6.05.88,7.82-.41,1.67-1.22.49-4.81.5-7.36,0-1.45.45-2.01,1.86-1.79.1.02.2,0,.3,0,2.37-.05,5.64.83,6.89-.38,1.64-1.58.52-4.87.53-7.41.01-19.7-.05-39.4-.08-59.1,0-3.19,0-6.37,0-9.56,0-3.14,1.42-7.31-.52-9.09Z"/>
    <path class="cls-11" d="M749.73,598.76c2.59.03,5.17.15,7.76.06,1.45-.05,1.82.43,1.83,1.84.03,2.54-1.15,5.94.53,7.38,1.44,1.24,4.74.42,7.22.33,1.49-.06,1.98.49,1.77,1.87-.01.1,0,.2,0,.3.06,2.37-.8,5.55.41,6.9,1.42,1.6,4.67.42,7.12.5,3.08.1,6.17.11,9.25,0,1.68-.06,2.46.18,2.41,2.19-.06,2.43-1.2,5.69.52,7.08,1.45,1.18,4.58.37,6.95.29,1.45-.05,2.14.22,2.06,1.91-.11,2.46-.83,5.7.41,7.18,1.31,1.57,4.66.43,7.11.44,1.49.01,2.1.31,2.03,1.95-.1,2.46-.82,5.71.43,7.17,1.32,1.55,4.67.43,7.12.43,1.54,0,2.24.39,1.96,1.98-.02.1,0,.2,0,.3.14,7.84.13,7.8,7.92,7.37,1.31-.07,1.67-.41,1.66-1.7-.04-14.83-.04-29.66,0-44.49,0-1.33-.4-1.73-1.69-1.66-1.89.1-3.8-.12-5.67.07-1.92.19-2.28-.53-2.26-2.32.08-11.84.04-23.69.04-35.53,0-15.23-.05-30.46.06-45.69.01-2.13-.55-2.69-2.62-2.58-2.24.12-5.33,1.03-6.54-.4-1.15-1.36-.44-4.34-.44-6.6-.02-22.2-.05-44.39.05-66.59.01-2.4-.66-2.92-2.94-2.87-6.68.14-6.68.04-6.68-6.71,0-19.11-.05-38.22.06-57.33.01-2.42-.7-2.94-2.95-2.86-4.57.17-9.16.18-13.73,0-2.18-.09-2.75.63-2.53,2.66.17,1.57-.12,3.2.07,4.77.24,1.98-.62,2.26-2.35,2.24-2.35-.03-5.46-1.07-6.83.45-1.16,1.28-.48,4.34-.37,6.6.09,1.84-.31,2.86-2.38,2.46-.1-.02-.2,0-.3,0-2.25.16-5.23-.98-6.54.5-1.1,1.25-.36,4.15-.38,6.32-.03,3.48-.07,6.97.02,10.45.03,1.38-.3,2.09-1.79,1.84-.19-.03-.4-.02-.6,0-2.34.2-5.55-1.07-6.8.52-1.17,1.49-.37,4.56-.39,6.93-.03,3.28-.07,6.57.02,9.85.04,1.42-.37,2.05-1.82,1.82-.19-.03-.4-.02-.6,0-2.34.21-5.46-1.06-6.81.54-1.14,1.35-.35,4.36-.35,6.64-.01,19.01.04,38.02-.06,57.03-.01,2.23.51,2.8,2.75,2.76,6.86-.13,6.86-.03,6.86,6.83,0,28.47,0,56.94,0,85.4,0,1.09.06,2.19.09,3.28,0,0-.08-.08-.08-.08Z"/>
    <path class="cls-11" d="M921.8,646.6c-.01.4-.01.8-.04,1.19-.18,2.74,1.18,6.4-.56,7.97-1.49,1.35-5.09.43-7.76.43-12.24.02-24.48.06-36.71-.04-2.1-.02-3.01.3-2.83,2.68.17,2.22,1.06,5.32-.42,6.52-1.4,1.13-4.35.39-6.62.4-9.45.02-18.9.07-28.35-.04-2.09-.02-2.93.29-2.83,2.68.22,5.46.09,10.94.11,16.41,3.18.06,6.36.11,9.54.17,5.67-.03,11.34-.13,17.01-.05,1.71.02,2.2-.48,2.13-2.15-.11-2.37-.87-5.64.34-6.89,1.58-1.64,4.87-.51,7.41-.53,9.35-.07,18.71-.09,28.06.02,1.99.02,2.46-.56,2.44-2.47-.03-2.33-1.13-5.46.49-6.8,1.37-1.13,4.37-.33,6.65-.33,15.82,0,31.65-.06,47.47.06,2.28.02,2.84-.58,2.74-2.78-.11-2.22-1.07-5.22.48-6.51,1.31-1.09,4.2-.49,6.35-.27,2.34.24,2.75-.65,2.71-2.79-.12-6.82-.03-6.82-6.98-6.82-13.63,0-27.27.02-40.9.03,0,0,.08-.08.08-.08Z"/>
    <path class="cls-11" d="M721,780.5c2.66-.01,5.31.04,7.97-.07,1.3-.05,1.71.36,1.66,1.66-.1,2.65-.05,5.31-.07,7.97,3.21,0,6.43,0,9.64,0-.01-5.67-.09-11.35,0-17.02.02-1.64-.36-2.44-2.1-2.14-.1.02-.2,0-.3,0-2.34-.2-5.56,1.07-6.81-.52-1.17-1.49-.37-4.56-.38-6.93-.02-3.29-.07-6.57.02-9.85.04-1.43-.38-1.84-1.82-1.85-2.54-.02-5.94,1.14-7.39-.52-1.24-1.43-.43-4.74-.34-7.21.05-1.47-.46-1.77-1.85-1.82-7.74-.29-7.73-.33-7.74,7.25,0,3.98-.03,7.96-.04,11.95,2.57-.01,5.14.07,7.7-.08,1.63-.1,1.95.53,1.93,2.01-.09,5.73-.06,11.46-.07,17.18Z"/>
    <path class="cls-11" d="M740.12,809.18c2.66-.01,5.31.04,7.97-.07,1.3-.05,1.71.36,1.66,1.66-.1,2.65-.05,5.31-.07,7.97,3.21-.03,6.42-.05,9.64-.08l-.08.08c0-6.4,0-12.8,0-19.19l.08.08c-2.57-.01-5.14-.13-7.7,0-1.62.08-1.92-.52-1.95-2-.05-2.51,1.18-5.88-.58-7.29-1.51-1.21-4.73-.28-7.2-.3-.59,0-1.18-.02-1.78-.04,0,6.4,0,12.8,0,19.2Z"/>
    <path class="cls-5" d="M845.32,684.97c-3.18-.06-6.36-.11-9.54-.17-.02,3.18-.04,6.36-.06,9.54,3.2,0,6.4,0,9.6,0,0-3.12,0-6.24,0-9.37Z"/>
    <path class="cls-11" d="M931.28,799.54c15.17.01,30.34,0,45.51.08,1.69,0,2.53-.21,2.36-2.2-.21-2.46-.07-4.95-.09-7.43l.08.08c-15.17-.01-30.34,0-45.51-.07-1.69,0-2.53.21-2.36,2.2.21,2.46.07,4.95.09,7.43l-.08-.08Z"/>
    <path class="cls-11" d="M845.26,818.65c15.17.01,30.34,0,45.51.08,1.69,0,2.53-.21,2.36-2.2-.21-2.46-.07-4.95-.09-7.43,0,0,.08.08.08.08-15.17-.01-30.34,0-45.51-.07-1.69,0-2.53.21-2.36,2.2.21,2.46.07,4.95.09,7.43l-.08-.08Z"/>
    <path class="cls-11" d="M1007.75,780.42c15.17.01,30.34,0,45.51.08,1.69,0,2.53-.2,2.36-2.2-.21-2.46-.07-4.95-.09-7.43l.08.08h-47.87s.08-.08.08-.08c0,3.21,0,6.42,0,9.64l-.08-.08Z"/>
    <path class="cls-11" d="M1103.41,770.94c-.03-3.21-.06-6.42-.08-9.64l.08.08c-15.96,0-31.91,0-47.87,0l.08-.08c0,3.21,0,6.42,0,9.64l-.08-.08c15.96.03,31.92.05,47.87.08Z"/>
    <path class="cls-11" d="M807.03,828.21c11.99.01,23.98,0,35.97.08,1.71.01,2.52-.23,2.35-2.21-.2-2.46-.07-4.95-.08-7.43,0,0,.08.08.08.08-11.99-.01-23.98,0-35.96-.08-1.71-.01-2.52.23-2.35,2.21.21,2.46.07,4.95.09,7.43l-.08-.08Z"/>
    <path class="cls-11" d="M893.05,809.1c11.99.01,23.98,0,35.97.08,1.71.01,2.52-.23,2.35-2.21-.21-2.46-.07-4.95-.08-7.43l.08.08c-11.99-.01-23.98,0-35.96-.08-1.71-.01-2.52.23-2.35,2.21.21,2.46.07,4.95.09,7.43,0,0-.08-.08-.08-.08Z"/>
    <path class="cls-11" d="M768.89,837.78c3.17.04,6.35.09,9.52.13,8.79-.03,17.59-.12,26.38-.06,1.75.01,2.48-.3,2.32-2.23-.2-2.46-.07-4.94-.08-7.41,0,0,.08.08.08.08-9.57-.05-19.13-.1-28.7-.14-3.2.05-6.4.09-9.61.14l.07-.07c0,3.19.01,6.37.02,9.56Z"/>
    <path class="cls-11" d="M979.07,789.98c8.81.01,17.62-.02,26.42.08,1.73.02,2.5-.26,2.34-2.22-.2-2.46-.07-4.94-.08-7.42,0,0,.08.08.08.08-8.81-.01-17.61.02-26.42-.08-1.73-.02-2.5.26-2.34,2.22.2,2.46.07,4.94.08,7.42l-.08-.08Z"/>
    <path class="cls-11" d="M1103.33,761.31c11.99.01,23.98,0,35.97.07,1.7.01,2.52-.22,2.36-2.21-.21-2.46-.07-4.95-.09-7.43l.08.08c-11.99-.01-23.98,0-35.96-.08-1.71-.01-2.52.23-2.35,2.21.2,2.46.07,4.95.08,7.43,0,0-.08-.08-.08-.08Z"/>
    <path class="cls-11" d="M1141.56,751.75c11.99.01,23.98,0,35.97.07,1.7.01,2.52-.22,2.36-2.21-.21-2.46-.07-4.95-.09-7.43,0,0,.08.08.08.08-11.99-.01-23.98,0-35.96-.08-1.71-.01-2.52.23-2.35,2.21.2,2.46.07,4.95.08,7.43,0,0-.08-.08-.08-.08Z"/>
    <path class="cls-11" d="M1179.79,742.19c8.83.01,17.66-.04,26.49.09,1.87.03,2.28-.49,2.28-2.3,0-7.3.07-7.3-7.35-7.3-6.15,0-12.31.15-18.45-.07-2.61-.1-3.2.75-2.96,3.13.22,2.16.07,4.36.08,6.54,0,0-.08-.08-.08-.08Z"/>
    <path class="cls-11" d="M759.31,818.65c-.01,2.65.04,5.31-.06,7.96-.05,1.29.36,1.71,1.66,1.66,2.65-.1,5.31-.05,7.96-.06l-.07.07v-9.63s.07.07.07.07c-3.21,0-6.42,0-9.63,0l.08-.08Z"/>
    <path class="cls-10" d="M998.22,694.38c0,2.39-.11,4.79.04,7.17.13,2.04-.71,2.49-2.59,2.48-10.85-.07-21.71.04-32.56-.09-2.46-.03-3.23.61-3.18,3.13.14,6.48.02,6.48-6.52,6.48-6.57,0-13.14.05-19.71-.03-1.79-.02-2.65.49-2.38,2.35.01.1,0,.2,0,.3q-.13,6.94-7.02,6.94c-12.64,0-25.29.05-37.93-.04-2.19-.02-2.91.54-2.88,2.82.07,6.66-.04,6.74-6.83,6.73-2.04,0-2.74.52-2.74,2.66,0,6.87-.08,6.96,6.76,6.9,2.16-.02,2.99.47,2.9,2.8-.18,4.67.02,9.36-.09,14.04-.04,1.86.6,2.4,2.41,2.38,2.26-.03,5.11-.99,6.64.43,1.56,1.46.53,4.35.5,6.59-.03,1.97.62,2.54,2.56,2.53,11.05-.08,22.1-.09,33.15,0,2.2.02,2.61-.8,2.61-2.78,0-6.83.06-6.83,6.79-6.83,18.92,0,37.83-.04,56.75.05,2.5.01,3.49-.44,3.4-3.22-.2-6.38-.04-6.39,6.3-6.39,12.74,0,25.49-.06,38.23.05,2.36.02,3.31-.43,3.25-3.06-.15-6.55-.01-6.55,6.45-6.55,6.47,0,12.94-.06,19.41.04,1.96.03,2.8-.37,2.8-2.59,0-7.01.11-7.01,7.2-7.01,3.29,0,6.61.33,9.85-.08,4.06-.52,1.42-3.91,1.9-5.92.3-1.23,1.17-3.56-1.89-3.6-2.44-.03-5.68,1.17-7.09-.62-1.19-1.49-.48-4.57-.43-6.94.03-1.67-.75-2.02-2.19-1.96-1.79.07-3.59-.06-5.37.04-1.59.09-2.03-.6-2.06-2.1-.05-2.36,1.04-5.35-.46-6.92-1.53-1.6-4.54-.48-6.89-.51-1.71-.02-2.38-.61-2.18-2.27.04-.29,0-.6,0-.9q-.04-6.44-6.62-6.44c-20.11,0-40.22,0-60.34,0l.04-.04Z"/>
    <path class="cls-1" d="M979.15,790.06c-.01-2.47.12-4.96-.08-7.42-.16-1.96.61-2.24,2.34-2.22,8.81.1,17.61.06,26.42.08,0-3.21,0-6.42,0-9.64-11.94.01-23.88.06-35.83,0-1.86-.01-2.84.35-2.45,2.39.02.1,0,.2,0,.3q-.04,6.91-6.84,6.91c-12.84,0-25.68.04-38.51-.04-1.87-.01-2.58.36-2.5,2.4.08,2.33,1.12,5.55-.45,6.8-1.48,1.18-4.55.39-6.92.39-9.45.02-18.91.06-28.36-.04-1.89-.02-2.56.39-2.49,2.41.08,2.33,1.13,5.55-.46,6.8-1.49,1.17-4.56.38-6.93.38-12.64.01-25.28.05-37.92-.04-1.9-.01-2.55.41-2.49,2.42.07,2.33,1.11,5.46-.47,6.81-1.33,1.14-4.35.36-6.63.37-9.55.02-19.11.06-28.66-.04-1.92-.02-2.53.45-2.48,2.43.06,2.33,1.12,5.46-.47,6.81-1.34,1.14-4.36.33-6.63.36-3.98.05-7.96.07-11.93.11,0,3.12,0,6.23,0,9.35,9.57.05,19.13.1,28.7.14-.01-2.48.12-4.97-.09-7.43-.17-1.98.65-2.22,2.35-2.21,11.99.08,23.98.06,35.96.08-.01-2.48.12-4.97-.09-7.43-.17-1.99.67-2.21,2.36-2.2,15.17.07,30.34.06,45.51.07-.01-2.48.12-4.97-.09-7.43-.17-1.98.65-2.22,2.35-2.21,11.99.08,23.98.06,35.96.08-.01-2.48.12-4.97-.09-7.43-.17-1.99.67-2.21,2.36-2.2,15.17.07,30.34.06,45.51.07Z"/>
    <path class="cls-4" d="M826.2,732.65c0,2.59-.09,5.17,0,7.76.05,1.46-.5,2-1.9,1.82-.2-.02-.4,0-.6,0-7.5.13-7.47.13-7.12,7.64.06,1.33.29,2.13,1.81,1.92.2-.03.4,0,.6,0,2.27.07,5.26-.72,6.63.43,1.63,1.37.45,4.47.53,6.82.11,3.28.1,6.57,0,9.85-.04,1.53.4,2.06,2,2.07,2.45.02,5.58-1.12,7.16.49,1.43,1.46.43,4.55.38,6.91-.04,1.73.56,2.16,2.22,2.15,11.34-.06,22.68-.06,34.02,0,1.5,0,2.11-.34,2.08-1.97-.1-5.07-.1-10.15,0-15.22.03-1.63-.57-2.16-2.07-1.95-.1.01-.2,0-.3,0-2.34-.23-5.53,1.1-6.8-.57-1.17-1.53-.39-4.57-.42-6.94-.03-2.98-.13-5.97.03-8.95.11-2.01-.38-2.93-2.58-2.69-1.67.18-3.39-.06-5.07.06-1.63.12-2.16-.56-1.96-2.06.03-.2,0-.4,0-.6q-.08-6.92-6.91-6.92c-7.26,0-14.52.01-21.78.02l.04-.04Z"/>
    <path class="cls-6" d="M759.27,761.54c0,2.09.22,4.21-.05,6.26-.38,2.81.82,3.22,3.29,3.16,6.32-.16,6.32-.05,6.32,6.22,0,3.58.04,7.16-.02,10.74-.03,1.39.13,2.15,1.87,2.15,2.53,0,5.92-1.2,7.36.57,1.23,1.51.38,4.76.33,7.24-.03,1.28.36,1.73,1.68,1.72,5.27-.07,10.54-.07,15.81,0,1.34.02,1.8-.47,1.65-1.73-.05-.39,0-.79,0-1.19q.02-6.66,6.83-6.66c3.48,0,6.96-.05,10.44.04,1.39.03,1.82-.37,1.89-1.82.37-7.66.41-7.74-7.24-7.73-2.03,0-2.46-.64-2.42-2.52.12-4.87,0-9.75.07-14.62.02-1.49-.31-2.09-1.95-2.07-2.45.02-5.65,1.11-7.17-.42-1.52-1.53-.44-4.72-.42-7.17.02-1.65-.6-1.93-2.08-1.96-2.45-.05-5.69,1.14-7.11-.5-1.2-1.39-.48-4.54-.38-6.91.07-1.72-.53-2.12-2.18-2.15-7.35-.12-7.44-.17-7.37,7.01.02,2.06-.47,2.72-2.6,2.64-4.77-.17-9.55.04-14.32-.1-1.9-.06-2.39.54-2.28,2.35.15,2.48.04,4.97.04,7.46Z"/>
    <path class="cls-4" d="M1165.58,713.55c4.08,0,8.15-.06,12.23.03,1.51.03,2.02-.38,2.08-1.98.27-7.47.33-7.54-7.17-7.55-1.96,0-2.56-.55-2.49-2.5.09-2.25.99-5.16-.39-6.61-1.4-1.47-4.34-.54-6.57-.44-2.18.1-2.61-.69-2.59-2.7.05-6.84-.03-6.92-6.86-6.87-2.01.02-2.72-.41-2.7-2.59.05-7.02-.04-7.02-7.05-7.02-6.46,0-12.93.05-19.39-.03-1.64-.02-2.19.4-2.23,2.14-.17,7.37-.23,7.45,7.02,7.4,2.1-.01,2.66.57,2.64,2.65-.06,6.89.03,7.01,6.81,6.9,2.33-.04,2.77.7,2.74,2.85-.09,6.72,0,6.81,6.71,6.72,2.14-.03,2.9.41,2.86,2.74-.11,6.87,0,6.87,6.89,6.87,2.49,0,4.97,0,7.46,0Z"/>
    <path class="cls-4" d="M1098.59,684.88c-3.98,0-7.96.07-11.94-.03-1.68-.04-2.43.24-2.45,2.23-.08,7.24-.17,7.31,7.14,7.32,1.9,0,2.56.45,2.54,2.46-.02,2.33-1.18,5.44.55,6.79,1.44,1.12,4.4.45,6.67.31,1.91-.12,2.32.59,2.32,2.37,0,2.34-1.13,5.45.52,6.82,1.38,1.14,4.37.47,6.64.38,1.76-.07,2.45.35,2.41,2.28-.06,2.34-1.1,5.41.45,6.87,1.52,1.43,4.55.37,6.92.42,3.28.07,6.57-.04,9.85.04,1.44.04,1.88-.47,1.86-1.88-.07-5.08-.07-10.15,0-15.23.02-1.52-.38-2.28-1.99-2.03-.19.03-.4.02-.6,0-2.25-.18-5.19.99-6.57-.51-1.35-1.47-.48-4.37-.37-6.63.09-2.02-.62-2.52-2.53-2.46-2.25.07-5.17,1.01-6.61-.41-1.44-1.42-.48-4.35-.43-6.6.05-1.88-.4-2.63-2.44-2.54-3.97.16-7.96.05-11.94.05Z"/>
    <path class="cls-4" d="M897.87,713.55c7.07,0,14.13-.06,21.2.04,1.94.03,2.89-.28,2.76-2.53-.13-2.24-1.02-5.17.41-6.6,1.43-1.43,4.35-.48,6.6-.42,1.9.05,2.53-.45,2.53-2.46,0-7.13.09-7.13-7.06-7.14-3.28,0-6.57.11-9.85-.05-1.93-.1-2.29.63-2.3,2.39-.01,2.34,1.15,5.53-.52,6.8-1.54,1.16-4.57.4-6.95.41-9.36.02-18.71.07-28.07-.03-2.04-.02-2.71.45-2.69,2.6.06,6.98-.04,6.98,6.92,6.98,5.67,0,11.35,0,17.02,0h0Z"/>
    <path class="cls-4" d="M826.16,732.69c0-2.49.12-4.98-.01-7.46-.09-1.73.54-2.17,2.2-2.16,7.96.08,15.92-.03,23.87.08,2.03.03,2.71-.44,2.69-2.6-.06-7.01.04-7.01-6.88-7.01-9.65,0-19.3.05-28.94-.04-1.92-.02-2.6.48-2.51,2.47.1,2.25.99,5.16-.38,6.62-1.39,1.5-4.33.55-6.57.45-2.16-.1-2.63.65-2.61,2.69.05,6.93-.03,6.93,6.96,6.93,4.08,0,8.16-.01,12.23-.02,0,0-.04.04-.04.04Z"/>
    <path class="cls-1" d="M1055.62,770.94c0-3.21,0-6.42,0-9.64-14.77.01-29.55.14-44.32-.05-3.16-.04-3.87.92-3.55,3.75.22,1.96.02,3.96,0,5.94h47.87Z"/>
    <path class="cls-4" d="M998.18,694.43c.02-2.49-.02-4.98.07-7.46.06-1.44-.24-2.13-1.93-2.12-14.63.06-29.26.06-43.89,0-1.57,0-1.98.47-2.04,2.02-.26,7.57-.31,7.57,7.22,7.56,13.53-.01,27.07-.03,40.6-.05,0,0-.04.04-.04.04Z"/>
    <path class="cls-4" d="M1036.77,684.88c5.47,0,10.94-.09,16.4.05,2.01.05,2.46-.62,2.46-2.52,0-7.09.07-7.09-7.09-7.09-9.54,0-19.09.07-28.63-.05-2.14-.03-2.63.63-2.61,2.67.05,6.94-.03,6.94,6.94,6.94,4.18,0,8.35,0,12.53,0Z"/>
    <path class="cls-6" d="M768.73,723.11c-2.48,0-4.97.08-7.45-.03-1.52-.07-2.15.34-2.04,1.97.14,1.98-.04,3.97.06,5.96.06,1.32-.42,1.74-1.71,1.68-1.88-.09-3.79.12-5.66-.06-1.95-.19-2.25.62-2.26,2.36-.04,7.24-.1,7.24,7.17,7.24,3.38,0,6.76-.06,10.13.03,1.39.03,1.88-.35,1.9-1.81.03-2.54-1.16-5.92.55-7.37,1.46-1.24,4.73-.44,7.2-.37,1.5.05,1.75-.56,1.8-1.91.32-7.69.36-7.69-7.31-7.69-.79,0-1.59,0-2.38,0Z"/>
    <path class="cls-4" d="M1084.36,675.3c2.58,0,5.16-.05,7.74.02,1.29.04,1.86-.42,1.7-1.71-.01-.1,0-.2,0-.3q.35-7.54-7.16-7.54c-3.37,0-6.75.05-10.12-.04-1.44-.04-1.79.49-1.86,1.88-.4,7.71-.44,7.71,7.32,7.71.79,0,1.59,0,2.38,0v-.02Z"/>
    <path class="cls-1" d="M759.23,818.73c3.21,0,6.42,0,9.63,0-.01-5.73-.07-11.45,0-17.18.02-1.48-.3-2.1-1.93-2.01-2.56.13-5.13.01-7.7,0,0,6.4,0,12.8,0,19.19Z"/>
    <path class="cls-4" d="M1122.75,665.76c.79,0,1.59,0,2.38,0,7.68,0,7.87-.26,6.95-8.1-.14-1.2-.58-1.48-1.66-1.47-5.26.03-10.53.04-15.79,0-1.28-.01-1.64.42-1.74,1.7-.58,7.88-.62,7.88,7.17,7.88h2.68Z"/>
    <path class="cls-9" d="M778.4,828.15c0-3.12,0-6.23,0-9.35-3.2-.05-6.4-.09-9.61-.14v9.63c3.2-.05,6.4-.09,9.61-.14Z"/>
    <path class="cls-16" d="M1017.25,436.35c.03-5.77.02-11.54.13-17.31.03-1.43-.39-2.03-1.83-1.81-.19.03-.4.02-.6,0-2.34-.21-5.46,1.06-6.81-.54-1.14-1.35-.34-4.36-.35-6.64-.05-7.16-.07-14.32-.1-21.49-2.47,0-4.93-.06-7.4,0-1.53.04-2.12-.55-2.08-2.08.07-2.46.01-4.93,0-7.4-19.11,0-38.22,0-57.33,0,0,2.19-.13,4.39.03,6.57.16,2.16-.48,3.01-2.8,2.94-5.47-.16-10.95-.07-16.42-.07-24.47.01-48.94.07-73.42-.03-2.5,0-3.12.61-3.05,3.07.18,6.53.05,6.67-6.53,6.48-2.55-.08-3.05.66-3.03,3.09.16,14.92.13,29.84.17,44.76,3.12,0,6.23-.01,9.35-.02.05-9.52.09-19.05.14-28.57-.01-2.38.08-4.76-.07-7.13-.12-1.97.64-2.57,2.57-2.53,5.54.11,11.09.05,16.64.06,19.09-.03,38.18-.07,57.26-.1.01-2.08.21-4.19-.02-6.25-.29-2.71.79-3.3,3.35-3.29,18.86.1,37.72.05,56.57.05,7.6,0,7.55,0,7.06,7.55-.1,1.59-.7,2.06-2.17,2.02-2.48-.06-4.96-.01-7.44,0,0,.79.02,1.59.02,2.38.01,7.02.01,7.12,7.02,7.12,2.2,0,2.61.82,2.58,2.78-.09,5.45,0,10.91.03,16.36,2.19,0,4.39.14,6.57,0,2.13-.15,3,.43,2.96,2.78-.14,8.66-.07,17.32-.08,25.98.04,19.09.07,38.18.11,57.28,2.29,0,4.58.11,6.87,0,1.86-.09,2.66.42,2.65,2.47-.06,17.52-.05,35.04,0,52.56,0,1.87-.68,2.45-2.45,2.37-2.38-.11-4.78-.04-7.17-.05h0c0,2.37-.1,4.75.05,7.11.12,2.01-.72,2.53-2.6,2.49-5.54-.1-11.07-.05-16.61-.06-12.71.04-25.43.08-38.14.12,0,2.19-.15,4.39,0,6.57.15,2.14-.45,3.03-2.79,2.95-5.47-.17-10.95-.07-16.42-.08-15.02.02-30.04-.02-45.06.11-2.41.02-2.73-.91-2.72-2.97.05-6.6-.02-6.72-6.63-6.6-2.47.05-2.96-.8-2.93-3.06.09-8.55,0-17.11-.02-25.66-3.13,0-6.26,0-9.39,0-.03,15.32-.05,30.65-.13,45.97,0,1.41.36,2.05,1.81,1.82.19-.03.4-.02.6,0,2.34.21,5.46-1.06,6.81.53,1.14,1.34.34,4.36.36,6.63.02,3.38.07,6.77-.03,10.15-.04,1.44.4,1.86,1.83,1.83,5.77-.11,11.54-.1,17.31-.13,0-.89,0-1.78,0-2.67,0-7.05,0-7,7.16-6.82,1.76.04,2.52.51,2.43,2.37-.12,2.37-.02,4.75-.02,7.13.4.03.79.1,1.19.09,2.67-.04,6.05.88,7.82-.41,1.67-1.22.59-4.82.48-7.35-.09-2.23,1.26-1.78,2.47-1.78,11.94-.04,23.88-.07,35.82-.1,0-.89,0-1.78,0-2.67,0-7.06,0-7.01,7.16-6.82,1.75.04,2.52.51,2.43,2.37-.12,2.37-.02,4.75-.02,7.13.4.03.79.1,1.19.09,2.67-.04,6.05.88,7.82-.41,1.67-1.22.59-4.82.49-7.35-.09-2.23,1.26-1.78,2.47-1.78,11.94-.04,23.88-.07,35.81-.1,0-.89,0-1.78,0-2.67,0-7.06,0-7,7.16-6.82,1.76.04,2.52.51,2.43,2.37-.12,2.37-.02,4.75-.02,7.13.4.03.79.1,1.19.09,2.67-.04,6.05.88,7.82-.41,1.67-1.22.49-4.81.5-7.36,0-1.45.45-2.01,1.86-1.79.1.02.2,0,.3,0,2.37-.05,5.64.83,6.89-.38,1.64-1.58.52-4.87.53-7.41.01-19.7-.05-39.4-.08-59.1-2.18,0-4.38-.17-6.55.04-2.49.24-3.11-.83-2.94-3.08.16-2.17.05-4.36.06-6.55,0-3.2,0-6.41.01-9.61-.01-21.18-.03-42.37-.05-63.55,0-1.09-.06-2.18-.09-3.27-.89,0-1.78,0-2.67,0-7.06,0-7,0-6.82-7.16.04-1.76.51-2.52,2.37-2.43,2.37.12,4.75.02,7.13.02Z"/>
    <path class="cls-17" d="M845.4,474.6c0,15.92,0,31.85,0,47.77,3.15,0,6.3.02,9.45.03,0,0,0,0,0,0-.03-15.93-.05-31.85-.08-47.78-3.12,0-6.25,0-9.37-.01Z"/>
    <path class="cls-1" d="M835.84,455.49c-.04,3.13-1.42,7.31.5,9.08,1.68,1.55,5.83.44,8.88.5,3.18-.02,6.37-.04,9.56-.06.03-2.45-.02-4.9.1-7.35.08-1.65-.49-2.28-2.17-2.21-2.45.1-4.9,0-7.35-.01-3.17.02-6.35.03-9.52.05Z"/>
    <path class="cls-7" d="M854.95,560.63c3.13,0,6.26,0,9.39,0,0-6.38,0-12.77-.01-19.15-3.13,0-6.25,0-9.38.01,0,6.38,0,12.75,0,19.13Z"/>
    <path class="cls-1" d="M854.96,541.5c3.13,0,6.25,0,9.38-.01.03-5.63,0-11.26.11-16.89.03-1.64-.47-2.31-2.18-2.23-2.46.11-4.94.03-7.41.04,0,0,0,0,0,0,0,3.2-.02,6.41-.03,9.61.04,3.16.09,6.32.13,9.48Z"/>
    <path class="cls-9" d="M921.7,388.54c5.47,0,10.95-.09,16.42.07,2.32.07,2.96-.77,2.8-2.94-.16-2.18-.03-4.38-.03-6.57-5.76-.03-11.52-.02-17.28-.11-1.39-.02-1.92.32-1.87,1.8.09,2.58-.02,5.16-.05,7.74Z"/>
    <path class="cls-7" d="M893.1,627.43c0-2.38-.1-4.76.02-7.13.09-1.86-.67-2.33-2.43-2.37-7.16-.18-7.15-.23-7.16,6.82,0,.89,0,1.78,0,2.67,3.19,0,6.38,0,9.57,0Z"/>
    <path class="cls-7" d="M950.45,617.87c0-2.38-.1-4.76.02-7.13.09-1.86-.68-2.33-2.43-2.37-7.16-.18-7.15-.24-7.16,6.82,0,.89,0,1.78,0,2.67,3.19,0,6.38,0,9.57,0Z"/>
    <path class="cls-8" d="M1007.8,608.31c0-2.38-.1-4.76.02-7.13.09-1.86-.67-2.33-2.43-2.37-7.16-.18-7.15-.23-7.16,6.82,0,.89,0,1.78,0,2.67,3.19,0,6.39,0,9.58,0Z"/>
    <path class="cls-9" d="M854.83,532.01c0-3.2.02-6.41.03-9.61-3.15,0-6.3-.02-9.45-.03-.01,3.14-1.42,7.31.52,9.09,1.7,1.56,5.84.47,8.9.54Z"/>
    <path class="cls-8" d="M1017.37,522.37c0,2.18.1,4.38-.06,6.55-.17,2.25.45,3.32,2.94,3.08,2.16-.21,4.36-.04,6.55-.04,0-3.19,0-6.37,0-9.56-3.15,0-6.29-.02-9.44-.03Z"/>
    <path class="cls-5" d="M1017.37,522.37c3.15,0,6.29.02,9.44.03,0-3.14,1.42-7.31-.52-9.09-1.7-1.56-5.84-.47-8.9-.55,0,3.2,0,6.41-.01,9.61Z"/>
    <path class="cls-9" d="M854.78,465.01c-3.18.02-6.37.04-9.55.06.06,3.18.12,6.36.18,9.53,3.12,0,6.25,0,9.37.01,0-3.2,0-6.41.01-9.61Z"/>
    <path class="cls-9" d="M835.84,455.49c3.17-.02,6.35-.03,9.52-.05-.05-3.18-.11-6.37-.16-9.55-3.12,0-6.23.01-9.35.02,0,3.19,0,6.39-.01,9.58Z"/>
    <path class="cls-7" d="M1017.25,436.35c-2.38,0-4.76.1-7.13-.02-1.86-.09-2.33.67-2.37,2.43-.18,7.16-.24,7.16,6.82,7.16.89,0,1.78,0,2.67,0,0-3.19,0-6.38,0-9.57Z"/>
    <path class="cls-7" d="M998.22,379.11c0,2.47.06,4.93,0,7.4-.04,1.53.55,2.12,2.08,2.08,2.46-.07,4.93-.01,7.4,0,.03-2.65,0-5.29.12-7.93.06-1.29-.37-1.71-1.66-1.66-2.64.11-5.29.09-7.93.12Z"/>
    <path class="cls-3" d="M845.2,445.89c.05,3.18.11,6.37.16,9.55,2.45.01,4.91.11,7.35.01,1.68-.07,2.25.56,2.17,2.21-.12,2.45-.07,4.9-.1,7.35,0,3.2,0,6.41-.01,9.61.03,15.93.05,31.85.08,47.78,2.47,0,4.94.08,7.41-.03,1.71-.08,2.21.59,2.18,2.23-.1,5.63-.08,11.26-.11,16.89,0,6.38,0,12.77.01,19.15.02,8.55.12,17.11.02,25.66-.02,2.26.47,3.1,2.93,3.06,6.61-.12,6.68,0,6.63,6.6-.02,2.06.3,2.99,2.72,2.97,15.02-.13,30.04-.09,45.06-.11.02-2.37.13-4.74.04-7.1-.07-1.72.4-2.49,2.3-2.45,5.62.12,11.24.08,16.87.11,12.71-.04,25.43-.08,38.14-.12.02-2.36.17-4.74.03-7.09-.12-2.02.7-2.5,2.57-2.46,5.52.09,11.04.02,16.56,0,0,0,0,0,0,0,.01-1.98.03-3.96.03-5.94.02-17.14.04-34.27.06-51.41-.04-19.09-.07-38.18-.11-57.28-2.37-.02-4.75-.13-7.12-.04-1.75.07-2.45-.44-2.43-2.32.1-8.8.07-17.6.09-26.4-.02-5.45-.12-10.91-.03-16.36.03-1.96-.38-2.78-2.58-2.78-7.01,0-7.01-.1-7.02-7.12,0-.79-.02-1.59-.02-2.38-19.12-.03-38.23-.05-57.35-.08-19.09.03-38.18.07-57.26.1-.02,2.39-.15,4.78-.03,7.16.09,1.83-.56,2.42-2.38,2.39-5.57-.07-11.14.02-16.72.04-.05,9.52-.09,19.05-.14,28.57Z"/>
    <path class="cls-9" d="M921.74,407.61c19.12.03,38.23.05,57.35.08,2.48,0,4.96-.05,7.44,0,1.47.04,2.07-.43,2.17-2.02.49-7.55.54-7.55-7.06-7.55-18.86,0-37.72.05-56.57-.05-2.56-.01-3.64.57-3.35,3.29.22,2.06.03,4.16.02,6.25Z"/>
    <path class="cls-7" d="M998.3,522.37c-.02,17.14-.04,34.27-.06,51.41,0,1.98-.02,3.96-.03,5.94,2.39,0,4.78-.06,7.17.05,1.77.08,2.46-.5,2.45-2.37-.06-17.52-.07-35.04,0-52.56,0-2.05-.79-2.57-2.65-2.47-2.28.11-4.58.01-6.87,0Z"/>
    <path class="cls-8" d="M988.74,436.34c-.02,8.8,0,17.6-.09,26.4-.02,1.88.69,2.39,2.43,2.32,2.37-.1,4.74.02,7.12.04,0-8.66-.06-17.32.08-25.98.04-2.35-.83-2.92-2.96-2.78-2.18.15-4.38.02-6.57,0Z"/>
    <path class="cls-9" d="M940.91,589.38c-5.62-.02-11.25.02-16.87-.11-1.9-.04-2.36.73-2.3,2.45.09,2.36-.02,4.73-.04,7.1,5.47,0,10.95-.09,16.42.08,2.34.07,2.94-.81,2.79-2.95-.15-2.18-.02-4.38,0-6.57Z"/>
    <path class="cls-7" d="M845.34,417.32c5.57-.03,11.15-.12,16.72-.04,1.83.02,2.47-.57,2.38-2.39-.11-2.38.01-4.77.03-7.16-5.55,0-11.09.05-16.64-.06-1.92-.04-2.68.56-2.57,2.53.14,2.37.05,4.75.07,7.13Z"/>
    <path class="cls-7" d="M998.21,579.71c-5.52,0-11.04.08-16.56,0-1.87-.03-2.69.45-2.57,2.46.14,2.36,0,4.73-.03,7.09,5.54,0,11.07-.04,16.61.06,1.88.03,2.72-.48,2.6-2.49-.14-2.36-.04-4.74-.05-7.12Z"/>
  </g>
</svg>